<svg width="415" height="900" viewBox="0 0 415 900" fill="none" xmlns="http://www.w3.org/2000/svg">
<g clip-path="url(#clip0_1_2)">
<rect width="415" height="900" fill="white"/>
<path d="M0 238.895H383C407.853 238.895 428 259.042 428 283.895V489H0V238.895Z" fill="#AAD1FE"/>
<path d="M0 193.5C0 174.446 15.4462 159 34.5 159H134C134.552 159 135 159.448 135 160V238.895H0V193.5Z" fill="#AAD1FE"/>
<path d="M195 238.316C150.5 226.737 184 162.474 134.5 159.579C85.0001 156.684 132 243 132 243C132 243 239.5 249.895 195 238.316Z" fill="#AAD1FE"/>
<path d="M0 361.895H383C407.853 361.895 428 382.042 428 406.895V612H0V361.895Z" fill="#0075FD"/>
<path d="M0 316.5C0 297.446 15.4462 282 34.5 282H134C134.552 282 135 282.448 135 283V361.895H0V316.5Z" fill="#0075FD"/>
<path d="M195 361.316C150.5 349.737 184 285.474 134.5 282.579C85.0001 279.684 132.5 365 132.5 365C132.5 365 239.5 372.895 195 361.316Z" fill="#0075FD"/>
<path d="M0 484.895H383C407.853 484.895 428 505.042 428 529.895V735H0V484.895Z" fill="#024EAA"/>
<path d="M0 439.5C0 420.446 15.4462 405 34.5 405H134C134.552 405 135 405.448 135 406V484.895H0V439.5Z" fill="#024EAA"/>
<path d="M195 484.316C150.5 472.737 184 408.474 134.5 405.579C85.0001 402.684 133 487 133 487C133 487 239.5 495.895 195 484.316Z" fill="#024EAA"/>
<path d="M0 619.053H383C407.853 619.053 428 639.2 428 664.053V926H0V619.053Z" fill="#011734"/>
<path d="M0 555.5C0 536.446 15.4462 521 34.5 521H134C134.552 521 135 521.448 135 522V619.053H0V555.5Z" fill="#011734"/>
<path d="M195.051 618.676C150.396 604.325 195.051 521.09 134.34 521.09C73.6288 521.09 133.336 621.864 133.336 621.864C133.336 621.864 239.707 633.026 195.051 618.676Z" fill="#011734"/>
<path d="M22.3523 665.028V661.273H42.081V665.028H34.4382V686H29.995V665.028H22.3523ZM50.0618 675.134V686H45.6911V661.273H49.9652V670.606H50.1825C50.6172 669.559 51.2893 668.734 52.1989 668.131C53.1165 667.519 54.2836 667.213 55.7003 667.213C56.9882 667.213 58.111 667.483 59.0689 668.022C60.0268 668.561 60.7673 669.35 61.2905 670.389C61.8217 671.427 62.0874 672.695 62.0874 674.192V686H57.7166V674.868C57.7166 673.62 57.3947 672.65 56.7507 671.958C56.1148 671.258 55.2214 670.908 54.0703 670.908C53.2976 670.908 52.6054 671.077 51.9936 671.415C51.3899 671.745 50.915 672.224 50.5689 672.852C50.2308 673.479 50.0618 674.24 50.0618 675.134ZM74.7528 686.362C72.8935 686.362 71.2876 685.976 69.9354 685.203C68.5911 684.422 67.5568 683.32 66.8324 681.895C66.108 680.462 65.7457 678.776 65.7457 676.836C65.7457 674.928 66.108 673.254 66.8324 671.813C67.5649 670.364 68.5871 669.237 69.8991 668.433C71.2112 667.62 72.7526 667.213 74.5234 667.213C75.6664 667.213 76.745 667.398 77.7592 667.769C78.7815 668.131 79.683 668.694 80.4638 669.459C81.2526 670.224 81.8724 671.197 82.3232 672.381C82.7739 673.556 82.9993 674.956 82.9993 676.582V677.923H67.7983V674.977H78.8097C78.8016 674.139 78.6205 673.395 78.2663 672.743C77.9122 672.083 77.4171 671.564 76.7812 671.185C76.1534 670.807 75.4209 670.618 74.5838 670.618C73.6903 670.618 72.9055 670.835 72.2294 671.27C71.5533 671.697 71.026 672.26 70.6477 672.96C70.2775 673.653 70.0883 674.413 70.0803 675.242V677.814C70.0803 678.893 70.2775 679.818 70.6719 680.591C71.0663 681.356 71.6177 681.943 72.326 682.354C73.0343 682.756 73.8634 682.957 74.8132 682.957C75.4491 682.957 76.0246 682.869 76.5398 682.692C77.0549 682.507 77.5017 682.237 77.88 681.883C78.2583 681.529 78.544 681.09 78.7372 680.567L82.8182 681.026C82.5606 682.104 82.0696 683.046 81.3452 683.851C80.6288 684.648 79.7112 685.268 78.5923 685.71C77.4735 686.145 76.1937 686.362 74.7528 686.362ZM103.341 686.362C101.481 686.362 99.8755 685.976 98.5233 685.203C97.179 684.422 96.1447 683.32 95.4203 681.895C94.6958 680.462 94.3336 678.776 94.3336 676.836C94.3336 674.928 94.6958 673.254 95.4203 671.813C96.1528 670.364 97.175 669.237 98.487 668.433C99.7991 667.62 101.34 667.213 103.111 667.213C104.254 667.213 105.333 667.398 106.347 667.769C107.369 668.131 108.271 668.694 109.052 669.459C109.84 670.224 110.46 671.197 110.911 672.381C111.362 673.556 111.587 674.956 111.587 676.582V677.923H96.3862V674.977H107.398C107.39 674.139 107.208 673.395 106.854 672.743C106.5 672.083 106.005 671.564 105.369 671.185C104.741 670.807 104.009 670.618 103.172 670.618C102.278 670.618 101.493 670.835 100.817 671.27C100.141 671.697 99.6139 672.26 99.2356 672.96C98.8654 673.653 98.6762 674.413 98.6681 675.242V677.814C98.6681 678.893 98.8654 679.818 99.2598 680.591C99.6542 681.356 100.206 681.943 100.914 682.354C101.622 682.756 102.451 682.957 103.401 682.957C104.037 682.957 104.613 682.869 105.128 682.692C105.643 682.507 106.09 682.237 106.468 681.883C106.846 681.529 107.132 681.09 107.325 680.567L111.406 681.026C111.148 682.104 110.657 683.046 109.933 683.851C109.217 684.648 108.299 685.268 107.18 685.71C106.061 686.145 104.782 686.362 103.341 686.362ZM120.621 686.374C119.446 686.374 118.388 686.165 117.446 685.746C116.512 685.32 115.772 684.692 115.224 683.863C114.685 683.034 114.415 682.012 114.415 680.796C114.415 679.75 114.609 678.885 114.995 678.2C115.381 677.516 115.909 676.969 116.577 676.558C117.245 676.148 117.997 675.838 118.835 675.629C119.68 675.411 120.553 675.254 121.455 675.158C122.541 675.045 123.423 674.944 124.099 674.856C124.775 674.759 125.266 674.614 125.572 674.421C125.886 674.22 126.043 673.91 126.043 673.492V673.419C126.043 672.51 125.773 671.805 125.234 671.306C124.694 670.807 123.918 670.558 122.903 670.558C121.833 670.558 120.984 670.791 120.356 671.258C119.736 671.725 119.317 672.276 119.1 672.912L115.019 672.332C115.341 671.206 115.872 670.264 116.613 669.507C117.353 668.742 118.259 668.171 119.33 667.793C120.4 667.406 121.583 667.213 122.879 667.213C123.773 667.213 124.662 667.318 125.548 667.527C126.433 667.736 127.242 668.082 127.974 668.565C128.707 669.04 129.295 669.688 129.737 670.509C130.188 671.33 130.413 672.357 130.413 673.588V686H126.212V683.452H126.067C125.801 683.968 125.427 684.451 124.944 684.901C124.469 685.344 123.869 685.702 123.145 685.976C122.429 686.242 121.587 686.374 120.621 686.374ZM121.756 683.163C122.634 683.163 123.394 682.99 124.038 682.644C124.682 682.289 125.177 681.822 125.523 681.243C125.878 680.663 126.055 680.032 126.055 679.347V677.162C125.918 677.275 125.684 677.379 125.354 677.476C125.032 677.572 124.67 677.657 124.268 677.729C123.865 677.802 123.467 677.866 123.072 677.923C122.678 677.979 122.336 678.027 122.046 678.068C121.394 678.156 120.811 678.301 120.295 678.502C119.78 678.703 119.374 678.985 119.076 679.347C118.778 679.702 118.629 680.16 118.629 680.724C118.629 681.529 118.923 682.136 119.511 682.547C120.098 682.957 120.847 683.163 121.756 683.163ZM149.466 672.357L145.482 672.791C145.369 672.389 145.172 672.01 144.89 671.656C144.616 671.302 144.246 671.016 143.779 670.799C143.312 670.582 142.741 670.473 142.065 670.473C141.155 670.473 140.39 670.67 139.771 671.065C139.159 671.459 138.857 671.97 138.865 672.598C138.857 673.137 139.054 673.576 139.457 673.914C139.867 674.252 140.543 674.53 141.485 674.747L144.648 675.423C146.403 675.802 147.707 676.401 148.56 677.222C149.422 678.043 149.856 679.118 149.864 680.446C149.856 681.613 149.514 682.644 148.838 683.537C148.17 684.422 147.24 685.115 146.049 685.614C144.858 686.113 143.489 686.362 141.944 686.362C139.674 686.362 137.847 685.887 136.462 684.938C135.078 683.98 134.253 682.648 133.987 680.941L138.249 680.531C138.442 681.368 138.853 682 139.481 682.426C140.109 682.853 140.926 683.066 141.932 683.066C142.97 683.066 143.803 682.853 144.431 682.426C145.067 682 145.385 681.472 145.385 680.845C145.385 680.313 145.18 679.875 144.769 679.528C144.367 679.182 143.739 678.917 142.886 678.732L139.722 678.068C137.943 677.697 136.627 677.073 135.774 676.196C134.921 675.311 134.498 674.192 134.506 672.84C134.498 671.697 134.808 670.706 135.436 669.869C136.072 669.024 136.953 668.372 138.08 667.913C139.215 667.447 140.523 667.213 142.004 667.213C144.178 667.213 145.888 667.676 147.136 668.602C148.391 669.527 149.168 670.779 149.466 672.357ZM153.468 686V667.455H157.839V686H153.468ZM155.666 664.822C154.974 664.822 154.378 664.593 153.879 664.134C153.38 663.667 153.13 663.108 153.13 662.456C153.13 661.796 153.38 661.237 153.879 660.778C154.378 660.311 154.974 660.077 155.666 660.077C156.366 660.077 156.962 660.311 157.453 660.778C157.952 661.237 158.201 661.796 158.201 662.456C158.201 663.108 157.952 663.667 157.453 664.134C156.962 664.593 156.366 664.822 155.666 664.822ZM170.544 686.362C168.684 686.362 167.079 685.976 165.726 685.203C164.382 684.422 163.348 683.32 162.623 681.895C161.899 680.462 161.537 678.776 161.537 676.836C161.537 674.928 161.899 673.254 162.623 671.813C163.356 670.364 164.378 669.237 165.69 668.433C167.002 667.62 168.544 667.213 170.314 667.213C171.457 667.213 172.536 667.398 173.55 667.769C174.573 668.131 175.474 668.694 176.255 669.459C177.044 670.224 177.663 671.197 178.114 672.381C178.565 673.556 178.79 674.956 178.79 676.582V677.923H163.589V674.977H174.601C174.593 674.139 174.412 673.395 174.057 672.743C173.703 672.083 173.208 671.564 172.572 671.185C171.944 670.807 171.212 670.618 170.375 670.618C169.481 670.618 168.697 670.835 168.02 671.27C167.344 671.697 166.817 672.26 166.439 672.96C166.068 673.653 165.879 674.413 165.871 675.242V677.814C165.871 678.893 166.068 679.818 166.463 680.591C166.857 681.356 167.409 681.943 168.117 682.354C168.825 682.756 169.654 682.957 170.604 682.957C171.24 682.957 171.816 682.869 172.331 682.692C172.846 682.507 173.293 682.237 173.671 681.883C174.049 681.529 174.335 681.09 174.528 680.567L178.609 681.026C178.352 682.104 177.861 683.046 177.136 683.851C176.42 684.648 175.502 685.268 174.383 685.71C173.265 686.145 171.985 686.362 170.544 686.362ZM197.146 672.357L193.161 672.791C193.049 672.389 192.851 672.01 192.57 671.656C192.296 671.302 191.926 671.016 191.459 670.799C190.992 670.582 190.42 670.473 189.744 670.473C188.835 670.473 188.07 670.67 187.45 671.065C186.839 671.459 186.537 671.97 186.545 672.598C186.537 673.137 186.734 673.576 187.136 673.914C187.547 674.252 188.223 674.53 189.165 674.747L192.328 675.423C194.083 675.802 195.387 676.401 196.24 677.222C197.101 678.043 197.536 679.118 197.544 680.446C197.536 681.613 197.194 682.644 196.518 683.537C195.85 684.422 194.92 685.115 193.729 685.614C192.537 686.113 191.169 686.362 189.624 686.362C187.354 686.362 185.527 685.887 184.142 684.938C182.758 683.98 181.933 682.648 181.667 680.941L185.929 680.531C186.122 681.368 186.533 682 187.161 682.426C187.788 682.853 188.605 683.066 189.612 683.066C190.65 683.066 191.483 682.853 192.111 682.426C192.747 682 193.065 681.472 193.065 680.845C193.065 680.313 192.859 679.875 192.449 679.528C192.046 679.182 191.419 678.917 190.565 678.732L187.402 678.068C185.623 677.697 184.307 677.073 183.454 676.196C182.601 675.311 182.178 674.192 182.186 672.84C182.178 671.697 182.488 670.706 183.116 669.869C183.752 669.024 184.633 668.372 185.76 667.913C186.895 667.447 188.203 667.213 189.684 667.213C191.857 667.213 193.568 667.676 194.815 668.602C196.071 669.527 196.848 670.779 197.146 672.357ZM210.409 667.455V670.835H199.748V667.455H210.409ZM202.38 663.011H206.75V680.422C206.75 681.01 206.839 681.46 207.016 681.774C207.201 682.08 207.443 682.289 207.74 682.402C208.038 682.515 208.368 682.571 208.73 682.571C209.004 682.571 209.254 682.551 209.479 682.511C209.712 682.47 209.89 682.434 210.01 682.402L210.747 685.819C210.513 685.899 210.179 685.988 209.745 686.085C209.318 686.181 208.795 686.237 208.175 686.254C207.08 686.286 206.094 686.121 205.217 685.759C204.34 685.388 203.643 684.817 203.128 684.044C202.621 683.271 202.372 682.305 202.38 681.146V663.011ZM226.325 686L221.085 667.455H225.54L228.8 680.494H228.969L232.302 667.455H236.709L240.041 680.422H240.222L243.434 667.455H247.901L242.649 686H238.097L234.62 673.467H234.366L230.889 686H226.325ZM256.289 686.374C255.114 686.374 254.056 686.165 253.114 685.746C252.18 685.32 251.44 684.692 250.892 683.863C250.353 683.034 250.083 682.012 250.083 680.796C250.083 679.75 250.277 678.885 250.663 678.2C251.049 677.516 251.577 676.969 252.245 676.558C252.913 676.148 253.665 675.838 254.502 675.629C255.348 675.411 256.221 675.254 257.123 675.158C258.209 675.045 259.091 674.944 259.767 674.856C260.443 674.759 260.934 674.614 261.24 674.421C261.554 674.22 261.711 673.91 261.711 673.492V673.419C261.711 672.51 261.441 671.805 260.902 671.306C260.362 670.807 259.586 670.558 258.571 670.558C257.501 670.558 256.652 670.791 256.024 671.258C255.404 671.725 254.985 672.276 254.768 672.912L250.687 672.332C251.009 671.206 251.54 670.264 252.281 669.507C253.021 668.742 253.927 668.171 254.998 667.793C256.068 667.406 257.251 667.213 258.547 667.213C259.441 667.213 260.33 667.318 261.216 667.527C262.101 667.736 262.91 668.082 263.642 668.565C264.375 669.04 264.962 669.688 265.405 670.509C265.856 671.33 266.081 672.357 266.081 673.588V686H261.88V683.452H261.735C261.469 683.968 261.095 684.451 260.612 684.901C260.137 685.344 259.537 685.702 258.813 685.976C258.096 686.242 257.255 686.374 256.289 686.374ZM257.424 683.163C258.302 683.163 259.062 682.99 259.706 682.644C260.35 682.289 260.845 681.822 261.191 681.243C261.546 680.663 261.723 680.032 261.723 679.347V677.162C261.586 677.275 261.352 677.379 261.022 677.476C260.7 677.572 260.338 677.657 259.936 677.729C259.533 677.802 259.135 677.866 258.74 677.923C258.346 677.979 258.004 678.027 257.714 678.068C257.062 678.156 256.479 678.301 255.963 678.502C255.448 678.703 255.042 678.985 254.744 679.347C254.446 679.702 254.297 680.16 254.297 680.724C254.297 681.529 254.591 682.136 255.179 682.547C255.766 682.957 256.515 683.163 257.424 683.163ZM272.529 692.955C271.933 692.955 271.382 692.906 270.875 692.81C270.376 692.721 269.977 692.617 269.679 692.496L270.694 689.091C271.329 689.276 271.897 689.365 272.396 689.357C272.895 689.349 273.334 689.192 273.712 688.886C274.098 688.588 274.424 688.089 274.69 687.389L275.064 686.386L268.339 667.455H272.975L277.25 681.46H277.443L281.729 667.455H286.377L278.952 688.246C278.606 689.228 278.147 690.069 277.576 690.769C277.004 691.478 276.304 692.017 275.475 692.387C274.654 692.765 273.672 692.955 272.529 692.955ZM307.096 667.455V670.835H296.435V667.455H307.096ZM299.067 663.011H303.438V680.422C303.438 681.01 303.526 681.46 303.703 681.774C303.889 682.08 304.13 682.289 304.428 682.402C304.726 682.515 305.056 682.571 305.418 682.571C305.692 682.571 305.941 682.551 306.167 682.511C306.4 682.47 306.577 682.434 306.698 682.402L307.434 685.819C307.201 685.899 306.867 685.988 306.432 686.085C306.006 686.181 305.482 686.237 304.863 686.254C303.768 686.286 302.782 686.121 301.904 685.759C301.027 685.388 300.331 684.817 299.816 684.044C299.309 683.271 299.059 682.305 299.067 681.146V663.011ZM318.642 686.362C316.831 686.362 315.261 685.964 313.933 685.167C312.605 684.37 311.575 683.255 310.842 681.822C310.118 680.39 309.756 678.715 309.756 676.8C309.756 674.884 310.118 673.206 310.842 671.765C311.575 670.324 312.605 669.205 313.933 668.408C315.261 667.612 316.831 667.213 318.642 667.213C320.453 667.213 322.023 667.612 323.351 668.408C324.679 669.205 325.705 670.324 326.43 671.765C327.162 673.206 327.528 674.884 327.528 676.8C327.528 678.715 327.162 680.39 326.43 681.822C325.705 683.255 324.679 684.37 323.351 685.167C322.023 685.964 320.453 686.362 318.642 686.362ZM318.666 682.861C319.648 682.861 320.469 682.591 321.129 682.052C321.789 681.505 322.28 680.772 322.602 679.854C322.932 678.937 323.097 677.915 323.097 676.788C323.097 675.653 322.932 674.626 322.602 673.709C322.28 672.783 321.789 672.047 321.129 671.499C320.469 670.952 319.648 670.678 318.666 670.678C317.66 670.678 316.823 670.952 316.155 671.499C315.495 672.047 315 672.783 314.67 673.709C314.348 674.626 314.187 675.653 314.187 676.788C314.187 677.915 314.348 678.937 314.67 679.854C315 680.772 315.495 681.505 316.155 682.052C316.823 682.591 317.66 682.861 318.666 682.861ZM23.2457 727V708.455H27.4233V711.606H27.6406C28.027 710.543 28.6669 709.714 29.5604 709.119C30.4538 708.515 31.5204 708.213 32.7599 708.213C34.0156 708.213 35.0741 708.519 35.9354 709.131C36.8047 709.734 37.4164 710.559 37.7706 711.606H37.9638C38.3743 710.576 39.0665 709.755 40.0405 709.143C41.0225 708.523 42.1856 708.213 43.5298 708.213C45.2363 708.213 46.6288 708.752 47.7074 709.831C48.786 710.91 49.3253 712.483 49.3253 714.552V727H44.9425V715.228C44.9425 714.077 44.6366 713.236 44.0249 712.705C43.4131 712.165 42.6645 711.896 41.7791 711.896C40.7247 711.896 39.8996 712.226 39.304 712.886C38.7164 713.538 38.4226 714.387 38.4226 715.433V727H34.1364V715.047C34.1364 714.089 33.8466 713.324 33.267 712.753C32.6955 712.181 31.947 711.896 31.0213 711.896C30.3935 711.896 29.822 712.057 29.3068 712.379C28.7917 712.693 28.3812 713.139 28.0753 713.719C27.7694 714.29 27.6165 714.958 27.6165 715.723V727H23.2457ZM59.0961 727.374C57.9209 727.374 56.8624 727.165 55.9206 726.746C54.9869 726.32 54.2464 725.692 53.699 724.863C53.1597 724.034 52.8901 723.012 52.8901 721.796C52.8901 720.75 53.0833 719.885 53.4696 719.2C53.856 718.516 54.3832 717.969 55.0513 717.558C55.7194 717.148 56.472 716.838 57.3091 716.629C58.1543 716.411 59.0276 716.254 59.9292 716.158C61.0158 716.045 61.8972 715.944 62.5733 715.856C63.2495 715.759 63.7405 715.614 64.0463 715.421C64.3603 715.22 64.5172 714.91 64.5172 714.492V714.419C64.5172 713.51 64.2476 712.805 63.7083 712.306C63.169 711.807 62.3922 711.558 61.378 711.558C60.3075 711.558 59.4583 711.791 58.8304 712.258C58.2106 712.725 57.7921 713.276 57.5748 713.912L53.4938 713.332C53.8158 712.206 54.347 711.264 55.0875 710.507C55.8281 709.742 56.7336 709.171 57.8042 708.793C58.8747 708.406 60.0579 708.213 61.3539 708.213C62.2473 708.213 63.1368 708.318 64.0222 708.527C64.9076 708.736 65.7166 709.082 66.449 709.565C67.1815 710.04 67.7691 710.688 68.2118 711.509C68.6626 712.33 68.888 713.357 68.888 714.588V727H64.6863V724.452H64.5414C64.2757 724.968 63.9015 725.451 63.4185 725.901C62.9436 726.344 62.3439 726.702 61.6195 726.976C60.9031 727.242 60.062 727.374 59.0961 727.374ZM60.231 724.163C61.1084 724.163 61.869 723.99 62.513 723.644C63.1569 723.289 63.6519 722.822 63.998 722.243C64.3522 721.663 64.5293 721.032 64.5293 720.347V718.162C64.3925 718.275 64.159 718.379 63.829 718.476C63.507 718.572 63.1448 718.657 62.7424 718.729C62.3399 718.802 61.9415 718.866 61.5471 718.923C61.1526 718.979 60.8105 719.027 60.5208 719.068C59.8688 719.156 59.2852 719.301 58.7701 719.502C58.2549 719.703 57.8484 719.985 57.5506 720.347C57.2528 720.702 57.1039 721.16 57.1039 721.724C57.1039 722.529 57.3977 723.136 57.9853 723.547C58.5729 723.957 59.3214 724.163 60.231 724.163ZM77.6536 716.134V727H73.2828V708.455H77.4604V711.606H77.6777C78.1043 710.568 78.7845 709.742 79.7182 709.131C80.66 708.519 81.8231 708.213 83.2076 708.213C84.4874 708.213 85.6022 708.487 86.552 709.034C87.5099 709.581 88.2504 710.374 88.7736 711.413C89.3049 712.451 89.5665 713.711 89.5584 715.192V727H85.1877V715.868C85.1877 714.628 84.8657 713.658 84.2218 712.958C83.5859 712.258 82.7045 711.908 81.5776 711.908C80.8129 711.908 80.1328 712.077 79.5371 712.415C78.9495 712.745 78.4867 713.224 78.1486 713.852C77.8186 714.479 77.6536 715.24 77.6536 716.134ZM99.3382 727.374C98.1631 727.374 97.1046 727.165 96.1628 726.746C95.2291 726.32 94.4886 725.692 93.9412 724.863C93.4019 724.034 93.1323 723.012 93.1323 721.796C93.1323 720.75 93.3255 719.885 93.7118 719.2C94.0982 718.516 94.6254 717.969 95.2935 717.558C95.9616 717.148 96.7142 716.838 97.5513 716.629C98.3965 716.411 99.2698 716.254 100.171 716.158C101.258 716.045 102.139 715.944 102.816 715.856C103.492 715.759 103.983 715.614 104.289 715.421C104.602 715.22 104.759 714.91 104.759 714.492V714.419C104.759 713.51 104.49 712.805 103.95 712.306C103.411 711.807 102.634 711.558 101.62 711.558C100.55 711.558 99.7005 711.791 99.0726 712.258C98.4528 712.725 98.0343 713.276 97.8169 713.912L93.736 713.332C94.0579 712.206 94.5892 711.264 95.3297 710.507C96.0703 709.742 96.9758 709.171 98.0463 708.793C99.1169 708.406 100.3 708.213 101.596 708.213C102.49 708.213 103.379 708.318 104.264 708.527C105.15 708.736 105.959 709.082 106.691 709.565C107.424 710.04 108.011 710.688 108.454 711.509C108.905 712.33 109.13 713.357 109.13 714.588V727H104.928V724.452H104.784C104.518 724.968 104.144 725.451 103.661 725.901C103.186 726.344 102.586 726.702 101.862 726.976C101.145 727.242 100.304 727.374 99.3382 727.374ZM100.473 724.163C101.351 724.163 102.111 723.99 102.755 723.644C103.399 723.289 103.894 722.822 104.24 722.243C104.594 721.663 104.771 721.032 104.771 720.347V718.162C104.635 718.275 104.401 718.379 104.071 718.476C103.749 718.572 103.387 718.657 102.985 718.729C102.582 718.802 102.184 718.866 101.789 718.923C101.395 718.979 101.053 719.027 100.763 719.068C100.111 719.156 99.5274 719.301 99.0123 719.502C98.4971 719.703 98.0906 719.985 97.7928 720.347C97.495 720.702 97.3461 721.16 97.3461 721.724C97.3461 722.529 97.6399 723.136 98.2275 723.547C98.815 723.957 99.5636 724.163 100.473 724.163ZM121.59 734.341C120.021 734.341 118.673 734.128 117.546 733.701C116.419 733.282 115.513 732.719 114.829 732.011C114.145 731.302 113.67 730.518 113.404 729.656L117.34 728.702C117.517 729.065 117.775 729.423 118.113 729.777C118.451 730.139 118.906 730.437 119.477 730.671C120.057 730.912 120.785 731.033 121.663 731.033C122.902 731.033 123.929 730.731 124.742 730.127C125.555 729.532 125.961 728.55 125.961 727.181V723.668H125.744C125.518 724.118 125.188 724.581 124.754 725.056C124.327 725.531 123.76 725.929 123.051 726.251C122.351 726.573 121.47 726.734 120.407 726.734C118.982 726.734 117.691 726.4 116.531 725.732C115.38 725.056 114.463 724.05 113.779 722.714C113.102 721.37 112.764 719.687 112.764 717.667C112.764 715.63 113.102 713.912 113.779 712.511C114.463 711.103 115.384 710.036 116.544 709.312C117.703 708.579 118.994 708.213 120.419 708.213C121.506 708.213 122.399 708.398 123.1 708.769C123.808 709.131 124.371 709.569 124.79 710.085C125.209 710.592 125.526 711.071 125.744 711.521H125.985V708.455H130.296V727.302C130.296 728.888 129.917 730.2 129.161 731.238C128.404 732.276 127.37 733.053 126.058 733.568C124.746 734.083 123.257 734.341 121.59 734.341ZM121.627 723.305C122.552 723.305 123.341 723.08 123.993 722.629C124.645 722.179 125.14 721.531 125.478 720.685C125.816 719.84 125.985 718.826 125.985 717.643C125.985 716.476 125.816 715.453 125.478 714.576C125.148 713.699 124.657 713.019 124.005 712.536C123.361 712.045 122.568 711.799 121.627 711.799C120.653 711.799 119.84 712.053 119.188 712.56C118.536 713.067 118.045 713.763 117.715 714.648C117.385 715.526 117.22 716.524 117.22 717.643C117.22 718.778 117.385 719.772 117.715 720.625C118.053 721.47 118.548 722.13 119.2 722.605C119.86 723.072 120.669 723.305 121.627 723.305ZM142.985 727.362C141.126 727.362 139.52 726.976 138.168 726.203C136.824 725.422 135.789 724.32 135.065 722.895C134.34 721.462 133.978 719.776 133.978 717.836C133.978 715.928 134.34 714.254 135.065 712.813C135.797 711.364 136.82 710.237 138.132 709.433C139.444 708.62 140.985 708.213 142.756 708.213C143.899 708.213 144.977 708.398 145.992 708.769C147.014 709.131 147.915 709.694 148.696 710.459C149.485 711.224 150.105 712.197 150.556 713.381C151.006 714.556 151.232 715.956 151.232 717.582V718.923H136.031V715.977H147.042C147.034 715.139 146.853 714.395 146.499 713.743C146.145 713.083 145.65 712.564 145.014 712.185C144.386 711.807 143.653 711.618 142.816 711.618C141.923 711.618 141.138 711.835 140.462 712.27C139.786 712.697 139.258 713.26 138.88 713.96C138.51 714.653 138.321 715.413 138.313 716.242V718.814C138.313 719.893 138.51 720.818 138.904 721.591C139.299 722.356 139.85 722.943 140.558 723.354C141.267 723.756 142.096 723.957 143.046 723.957C143.682 723.957 144.257 723.869 144.772 723.692C145.287 723.507 145.734 723.237 146.112 722.883C146.491 722.529 146.776 722.09 146.97 721.567L151.051 722.026C150.793 723.104 150.302 724.046 149.578 724.851C148.861 725.648 147.944 726.268 146.825 726.71C145.706 727.145 144.426 727.362 142.985 727.362ZM166.08 733.955C165.484 733.955 164.933 733.906 164.425 733.81C163.926 733.721 163.528 733.617 163.23 733.496L164.244 730.091C164.88 730.276 165.448 730.365 165.947 730.357C166.446 730.349 166.884 730.192 167.263 729.886C167.649 729.588 167.975 729.089 168.241 728.389L168.615 727.386L161.89 708.455H166.526L170.8 722.46H170.994L175.28 708.455H179.928L172.503 729.246C172.157 730.228 171.698 731.069 171.126 731.769C170.555 732.478 169.855 733.017 169.026 733.387C168.205 733.765 167.223 733.955 166.08 733.955ZM190.411 727.362C188.6 727.362 187.031 726.964 185.703 726.167C184.374 725.37 183.344 724.255 182.612 722.822C181.887 721.39 181.525 719.715 181.525 717.8C181.525 715.884 181.887 714.206 182.612 712.765C183.344 711.324 184.374 710.205 185.703 709.408C187.031 708.612 188.6 708.213 190.411 708.213C192.222 708.213 193.792 708.612 195.12 709.408C196.448 710.205 197.475 711.324 198.199 712.765C198.932 714.206 199.298 715.884 199.298 717.8C199.298 719.715 198.932 721.39 198.199 722.822C197.475 724.255 196.448 725.37 195.12 726.167C193.792 726.964 192.222 727.362 190.411 727.362ZM190.436 723.861C191.418 723.861 192.239 723.591 192.899 723.052C193.559 722.505 194.05 721.772 194.372 720.854C194.702 719.937 194.867 718.915 194.867 717.788C194.867 716.653 194.702 715.626 194.372 714.709C194.05 713.783 193.559 713.047 192.899 712.499C192.239 711.952 191.418 711.678 190.436 711.678C189.429 711.678 188.592 711.952 187.924 712.499C187.264 713.047 186.769 713.783 186.439 714.709C186.117 715.626 185.956 716.653 185.956 717.788C185.956 718.915 186.117 719.937 186.439 720.854C186.769 721.772 187.264 722.505 187.924 723.052C188.592 723.591 189.429 723.861 190.436 723.861ZM214.828 719.2V708.455H219.199V727H214.961V723.704H214.767C214.349 724.742 213.661 725.591 212.703 726.251C211.753 726.912 210.582 727.242 209.189 727.242C207.974 727.242 206.899 726.972 205.966 726.433C205.04 725.885 204.315 725.092 203.792 724.054C203.269 723.008 203.007 721.744 203.007 720.263V708.455H207.378V719.587C207.378 720.762 207.7 721.696 208.344 722.388C208.988 723.08 209.833 723.426 210.88 723.426C211.524 723.426 212.147 723.269 212.751 722.955C213.355 722.641 213.85 722.175 214.236 721.555C214.631 720.927 214.828 720.142 214.828 719.2ZM223.693 727V708.455H227.931V711.545H228.124C228.462 710.475 229.042 709.65 229.863 709.07C230.692 708.483 231.638 708.189 232.7 708.189C232.942 708.189 233.211 708.201 233.509 708.225C233.815 708.241 234.068 708.269 234.27 708.31V712.33C234.085 712.266 233.791 712.21 233.388 712.161C232.994 712.105 232.612 712.077 232.241 712.077C231.444 712.077 230.728 712.25 230.092 712.596C229.464 712.934 228.969 713.405 228.607 714.009C228.245 714.612 228.064 715.309 228.064 716.097V727H223.693ZM252.489 727.326C251.032 727.326 249.728 726.952 248.577 726.203C247.426 725.455 246.517 724.368 245.849 722.943C245.18 721.519 244.846 719.788 244.846 717.751C244.846 715.691 245.184 713.952 245.861 712.536C246.545 711.111 247.466 710.036 248.626 709.312C249.785 708.579 251.077 708.213 252.501 708.213C253.588 708.213 254.481 708.398 255.182 708.769C255.882 709.131 256.437 709.569 256.848 710.085C257.258 710.592 257.576 711.071 257.802 711.521H257.983V702.273H262.366V727H258.067V724.078H257.802C257.576 724.529 257.25 725.008 256.824 725.515C256.397 726.014 255.834 726.441 255.133 726.795C254.433 727.149 253.552 727.326 252.489 727.326ZM253.709 723.74C254.634 723.74 255.423 723.491 256.075 722.992C256.727 722.484 257.222 721.78 257.56 720.879C257.898 719.977 258.067 718.927 258.067 717.727C258.067 716.528 257.898 715.486 257.56 714.6C257.23 713.715 256.739 713.027 256.087 712.536C255.443 712.045 254.65 711.799 253.709 711.799C252.735 711.799 251.922 712.053 251.27 712.56C250.618 713.067 250.127 713.767 249.797 714.661C249.467 715.554 249.302 716.576 249.302 717.727C249.302 718.886 249.467 719.921 249.797 720.83C250.135 721.732 250.63 722.444 251.282 722.967C251.942 723.483 252.751 723.74 253.709 723.74ZM272.36 727.374C271.185 727.374 270.126 727.165 269.184 726.746C268.251 726.32 267.51 725.692 266.963 724.863C266.423 724.034 266.154 723.012 266.154 721.796C266.154 720.75 266.347 719.885 266.733 719.2C267.12 718.516 267.647 717.969 268.315 717.558C268.983 717.148 269.736 716.838 270.573 716.629C271.418 716.411 272.291 716.254 273.193 716.158C274.279 716.045 275.161 715.944 275.837 715.856C276.513 715.759 277.004 715.614 277.31 715.421C277.624 715.22 277.781 714.91 277.781 714.492V714.419C277.781 713.51 277.511 712.805 276.972 712.306C276.433 711.807 275.656 711.558 274.642 711.558C273.571 711.558 272.722 711.791 272.094 712.258C271.474 712.725 271.056 713.276 270.838 713.912L266.757 713.332C267.079 712.206 267.611 711.264 268.351 710.507C269.092 709.742 269.997 709.171 271.068 708.793C272.138 708.406 273.322 708.213 274.618 708.213C275.511 708.213 276.4 708.318 277.286 708.527C278.171 708.736 278.98 709.082 279.713 709.565C280.445 710.04 281.033 710.688 281.475 711.509C281.926 712.33 282.152 713.357 282.152 714.588V727H277.95V724.452H277.805C277.539 724.968 277.165 725.451 276.682 725.901C276.207 726.344 275.608 726.702 274.883 726.976C274.167 727.242 273.326 727.374 272.36 727.374ZM273.495 724.163C274.372 724.163 275.133 723.99 275.777 723.644C276.421 723.289 276.916 722.822 277.262 722.243C277.616 721.663 277.793 721.032 277.793 720.347V718.162C277.656 718.275 277.423 718.379 277.093 718.476C276.771 718.572 276.408 718.657 276.006 718.729C275.604 718.802 275.205 718.866 274.811 718.923C274.416 718.979 274.074 719.027 273.784 719.068C273.132 719.156 272.549 719.301 272.034 719.502C271.519 719.703 271.112 719.985 270.814 720.347C270.516 720.702 270.368 721.16 270.368 721.724C270.368 722.529 270.661 723.136 271.249 723.547C271.837 723.957 272.585 724.163 273.495 724.163ZM295.807 708.455V711.835H285.146V708.455H295.807ZM287.778 704.011H292.149V721.422C292.149 722.01 292.237 722.46 292.414 722.774C292.6 723.08 292.841 723.289 293.139 723.402C293.437 723.515 293.767 723.571 294.129 723.571C294.403 723.571 294.652 723.551 294.877 723.511C295.111 723.47 295.288 723.434 295.409 723.402L296.145 726.819C295.912 726.899 295.578 726.988 295.143 727.085C294.717 727.181 294.193 727.237 293.574 727.254C292.479 727.286 291.493 727.121 290.615 726.759C289.738 726.388 289.042 725.817 288.527 725.044C288.02 724.271 287.77 723.305 287.778 722.146V704.011ZM304.799 727.374C303.624 727.374 302.566 727.165 301.624 726.746C300.69 726.32 299.95 725.692 299.402 724.863C298.863 724.034 298.593 723.012 298.593 721.796C298.593 720.75 298.786 719.885 299.173 719.2C299.559 718.516 300.086 717.969 300.754 717.558C301.423 717.148 302.175 716.838 303.012 716.629C303.857 716.411 304.731 716.254 305.632 716.158C306.719 716.045 307.6 715.944 308.276 715.856C308.953 715.759 309.444 715.614 309.749 715.421C310.063 715.22 310.22 714.91 310.22 714.492V714.419C310.22 713.51 309.951 712.805 309.411 712.306C308.872 711.807 308.095 711.558 307.081 711.558C306.011 711.558 305.161 711.791 304.534 712.258C303.914 712.725 303.495 713.276 303.278 713.912L299.197 713.332C299.519 712.206 300.05 711.264 300.791 710.507C301.531 709.742 302.437 709.171 303.507 708.793C304.578 708.406 305.761 708.213 307.057 708.213C307.95 708.213 308.84 708.318 309.725 708.527C310.611 708.736 311.42 709.082 312.152 709.565C312.885 710.04 313.472 710.688 313.915 711.509C314.366 712.33 314.591 713.357 314.591 714.588V727H310.389V724.452H310.244C309.979 724.968 309.605 725.451 309.122 725.901C308.647 726.344 308.047 726.702 307.323 726.976C306.606 727.242 305.765 727.374 304.799 727.374ZM305.934 724.163C306.811 724.163 307.572 723.99 308.216 723.644C308.86 723.289 309.355 722.822 309.701 722.243C310.055 721.663 310.232 721.032 310.232 720.347V718.162C310.096 718.275 309.862 718.379 309.532 718.476C309.21 718.572 308.848 718.657 308.445 718.729C308.043 718.802 307.645 718.866 307.25 718.923C306.856 718.979 306.514 719.027 306.224 719.068C305.572 719.156 304.988 719.301 304.473 719.502C303.958 719.703 303.552 719.985 303.254 720.347C302.956 720.702 302.807 721.16 302.807 721.724C302.807 722.529 303.101 723.136 303.688 723.547C304.276 723.957 305.025 724.163 305.934 724.163Z" fill="white"/>
<path d="M21.5568 761.364V759.818H29.6804V761.364H26.5334V770H24.7038V761.364H21.5568ZM32.9666 765.526V770H31.1669V759.818H32.9268V763.661H33.0163C33.1953 763.23 33.4721 762.891 33.8466 762.642C34.2244 762.39 34.705 762.264 35.2884 762.264C35.8187 762.264 36.281 762.375 36.6754 762.597C37.0698 762.819 37.3748 763.144 37.5902 763.572C37.8089 763.999 37.9183 764.521 37.9183 765.138V770H36.1186V765.416C36.1186 764.903 35.986 764.503 35.7209 764.218C35.459 763.93 35.0911 763.786 34.6172 763.786C34.299 763.786 34.014 763.855 33.7621 763.994C33.5135 764.13 33.3179 764.327 33.1754 764.586C33.0362 764.845 32.9666 765.158 32.9666 765.526ZM43.1335 770.149C42.3679 770.149 41.7067 769.99 41.1499 769.672C40.5964 769.35 40.1705 768.896 39.8722 768.31C39.5739 767.72 39.4247 767.025 39.4247 766.227C39.4247 765.441 39.5739 764.752 39.8722 764.158C40.1738 763.562 40.5947 763.098 41.1349 762.766C41.6752 762.432 42.3099 762.264 43.0391 762.264C43.5097 762.264 43.9538 762.34 44.3714 762.493C44.7924 762.642 45.1636 762.874 45.4851 763.189C45.8099 763.504 46.0651 763.905 46.2507 764.392C46.4363 764.876 46.5291 765.453 46.5291 766.122V766.674H40.2699V765.461H44.804C44.8007 765.116 44.7261 764.81 44.5803 764.541C44.4344 764.269 44.2306 764.056 43.9688 763.9C43.7102 763.744 43.4086 763.666 43.0639 763.666C42.696 763.666 42.3729 763.756 42.0945 763.935C41.8161 764.11 41.599 764.342 41.4432 764.631C41.2907 764.916 41.2128 765.229 41.2095 765.57V766.629C41.2095 767.073 41.2907 767.455 41.4531 767.773C41.6155 768.088 41.8426 768.33 42.1342 768.499C42.4259 768.664 42.7673 768.747 43.1584 768.747C43.4202 768.747 43.6572 768.711 43.8693 768.638C44.0814 768.562 44.2654 768.451 44.4212 768.305C44.5769 768.159 44.6946 767.978 44.7741 767.763L46.4545 767.952C46.3485 768.396 46.1463 768.784 45.848 769.115C45.553 769.443 45.1752 769.698 44.7145 769.881C44.2538 770.06 43.7268 770.149 43.1335 770.149ZM51.6039 770V759.818H55.5016C56.2374 759.818 56.8489 759.934 57.3361 760.166C57.8266 760.395 58.1929 760.708 58.4348 761.106C58.6801 761.504 58.8027 761.954 58.8027 762.458C58.8027 762.872 58.7232 763.227 58.5641 763.522C58.405 763.814 58.1912 764.051 57.9228 764.233C57.6543 764.415 57.3543 764.546 57.0229 764.626V764.725C57.3842 764.745 57.7305 764.856 58.062 765.058C58.3967 765.257 58.6702 765.539 58.8823 765.903C59.0944 766.268 59.2005 766.709 59.2005 767.226C59.2005 767.753 59.0729 768.227 58.8176 768.648C58.5624 769.065 58.178 769.395 57.6642 769.637C57.1505 769.879 56.5042 770 55.7253 770H51.6039ZM53.4483 768.459H55.432C56.1015 768.459 56.5837 768.331 56.8787 768.076C57.177 767.818 57.3262 767.486 57.3262 767.082C57.3262 766.78 57.2516 766.508 57.1025 766.266C56.9533 766.021 56.7412 765.829 56.4661 765.69C56.191 765.547 55.8629 765.476 55.4817 765.476H53.4483V768.459ZM53.4483 764.148H55.2729C55.5911 764.148 55.8778 764.09 56.133 763.974C56.3882 763.855 56.5887 763.688 56.7346 763.472C56.8837 763.254 56.9583 762.995 56.9583 762.697C56.9583 762.302 56.8191 761.978 56.5407 761.722C56.2656 761.467 55.8562 761.34 55.3127 761.34H53.4483V764.148ZM64.1062 770.149C63.3406 770.149 62.6793 769.99 62.1225 769.672C61.569 769.35 61.1431 768.896 60.8448 768.31C60.5465 767.72 60.3974 767.025 60.3974 766.227C60.3974 765.441 60.5465 764.752 60.8448 764.158C61.1464 763.562 61.5674 763.098 62.1076 762.766C62.6478 762.432 63.2826 762.264 64.0117 762.264C64.4824 762.264 64.9265 762.34 65.3441 762.493C65.765 762.642 66.1362 762.874 66.4577 763.189C66.7826 763.504 67.0378 763.905 67.2234 764.392C67.409 764.876 67.5018 765.453 67.5018 766.122V766.674H61.2425V765.461H65.7766C65.7733 765.116 65.6987 764.81 65.5529 764.541C65.4071 764.269 65.2032 764.056 64.9414 763.9C64.6829 763.744 64.3813 763.666 64.0366 763.666C63.6687 763.666 63.3455 763.756 63.0671 763.935C62.7887 764.11 62.5716 764.342 62.4158 764.631C62.2634 764.916 62.1855 765.229 62.1822 765.57V766.629C62.1822 767.073 62.2634 767.455 62.4258 767.773C62.5882 768.088 62.8152 768.33 63.1069 768.499C63.3986 768.664 63.7399 768.747 64.131 768.747C64.3929 768.747 64.6299 768.711 64.842 768.638C65.0541 768.562 65.238 768.451 65.3938 768.305C65.5496 768.159 65.6673 767.978 65.7468 767.763L67.4272 767.952C67.3211 768.396 67.119 768.784 66.8207 769.115C66.5257 769.443 66.1478 769.698 65.6871 769.881C65.2264 770.06 64.6995 770.149 64.1062 770.149ZM75.0598 764.382L73.4192 764.561C73.3728 764.395 73.2916 764.24 73.1756 764.094C73.0629 763.948 72.9105 763.83 72.7182 763.741C72.526 763.651 72.2907 763.607 72.0123 763.607C71.6377 763.607 71.3229 763.688 71.0676 763.85C70.8158 764.013 70.6915 764.223 70.6948 764.482C70.6915 764.704 70.7727 764.884 70.9384 765.023C71.1074 765.163 71.3858 765.277 71.7736 765.367L73.0762 765.645C73.7987 765.801 74.3356 766.048 74.687 766.386C75.0416 766.724 75.2206 767.166 75.2239 767.713C75.2206 768.194 75.0797 768.618 74.8013 768.986C74.5262 769.35 74.1434 769.635 73.6529 769.841C73.1623 770.046 72.5989 770.149 71.9625 770.149C71.0279 770.149 70.2755 769.954 69.7054 769.563C69.1354 769.168 68.7956 768.62 68.6863 767.917L70.4412 767.748C70.5208 768.093 70.6898 768.353 70.9483 768.528C71.2069 768.704 71.5433 768.792 71.9576 768.792C72.3851 768.792 72.7282 768.704 72.9867 768.528C73.2485 768.353 73.3794 768.136 73.3794 767.877C73.3794 767.658 73.2949 767.478 73.1259 767.335C72.9602 767.193 72.7016 767.083 72.3503 767.007L71.0478 766.734C70.3153 766.581 69.7734 766.324 69.4221 765.963C69.0707 765.599 68.8967 765.138 68.9 764.581C68.8967 764.11 69.0243 763.703 69.2828 763.358C69.5447 763.01 69.9076 762.742 70.3716 762.553C70.839 762.36 71.3775 762.264 71.9874 762.264C72.8823 762.264 73.5866 762.455 74.1003 762.836C74.6174 763.217 74.9372 763.733 75.0598 764.382ZM80.5211 762.364V763.756H76.1312V762.364H80.5211ZM77.215 760.534H79.0147V767.703C79.0147 767.945 79.0512 768.131 79.1241 768.26C79.2003 768.386 79.2998 768.472 79.4224 768.519C79.545 768.565 79.6809 768.588 79.8301 768.588C79.9428 768.588 80.0455 768.58 80.1383 768.563C80.2344 768.547 80.3074 768.532 80.3571 768.519L80.6603 769.925C80.5642 769.959 80.4267 769.995 80.2477 770.035C80.072 770.075 79.8566 770.098 79.6014 770.104C79.1506 770.118 78.7446 770.05 78.3833 769.901C78.0221 769.748 77.7354 769.513 77.5233 769.195C77.3145 768.876 77.2117 768.479 77.215 768.001V760.534ZM89.3668 762.364V763.756H84.8526V762.364H89.3668ZM85.9812 770V761.643C85.9812 761.129 86.0872 760.702 86.2994 760.36C86.5148 760.019 86.8031 759.764 87.1644 759.595C87.5257 759.425 87.9267 759.341 88.3675 759.341C88.6791 759.341 88.9558 759.366 89.1978 759.416C89.4397 759.465 89.6187 759.51 89.7347 759.55L89.3768 760.942C89.3005 760.919 89.2044 760.895 89.0884 760.872C88.9724 760.846 88.8432 760.832 88.7006 760.832C88.3659 760.832 88.1289 760.914 87.9897 761.076C87.8538 761.235 87.7859 761.464 87.7859 761.762V770H85.9812ZM90.7763 770V762.364H92.576V770H90.7763ZM91.6811 761.28C91.3961 761.28 91.1508 761.185 90.9453 760.997C90.7398 760.804 90.6371 760.574 90.6371 760.305C90.6371 760.034 90.7398 759.803 90.9453 759.614C91.1508 759.422 91.3961 759.326 91.6811 759.326C91.9695 759.326 92.2147 759.422 92.4169 759.614C92.6224 759.803 92.7251 760.034 92.7251 760.305C92.7251 760.574 92.6224 760.804 92.4169 760.997C92.2147 761.185 91.9695 761.28 91.6811 761.28ZM96.2264 759.818V770H94.4267V759.818H96.2264ZM101.458 770.149C100.692 770.149 100.031 769.99 99.4741 769.672C98.9206 769.35 98.4947 768.896 98.1964 768.31C97.8981 767.72 97.7489 767.025 97.7489 766.227C97.7489 765.441 97.8981 764.752 98.1964 764.158C98.498 763.562 98.9189 763.098 99.4592 762.766C99.9994 762.432 100.634 762.264 101.363 762.264C101.834 762.264 102.278 762.34 102.696 762.493C103.117 762.642 103.488 762.874 103.809 763.189C104.134 763.504 104.389 763.905 104.575 764.392C104.761 764.876 104.853 765.453 104.853 766.122V766.674H98.5941V765.461H103.128C103.125 765.116 103.05 764.81 102.904 764.541C102.759 764.269 102.555 764.056 102.293 763.9C102.034 763.744 101.733 763.666 101.388 763.666C101.02 763.666 100.697 763.756 100.419 763.935C100.14 764.11 99.9232 764.342 99.7674 764.631C99.6149 764.916 99.5371 765.229 99.5337 765.57V766.629C99.5337 767.073 99.6149 767.455 99.7773 767.773C99.9397 768.088 100.167 768.33 100.458 768.499C100.75 768.664 101.092 768.747 101.483 768.747C101.744 768.747 101.981 768.711 102.194 768.638C102.406 768.562 102.59 768.451 102.745 768.305C102.901 768.159 103.019 767.978 103.098 767.763L104.779 767.952C104.673 768.396 104.471 768.784 104.172 769.115C103.877 769.443 103.499 769.698 103.039 769.881C102.578 770.06 102.051 770.149 101.458 770.149ZM109.849 770V762.364H111.569V763.661H111.658C111.817 763.224 112.081 762.882 112.449 762.637C112.817 762.389 113.256 762.264 113.766 762.264C114.283 762.264 114.719 762.39 115.074 762.642C115.432 762.891 115.684 763.23 115.829 763.661H115.909C116.078 763.237 116.363 762.899 116.764 762.647C117.168 762.392 117.647 762.264 118.201 762.264C118.903 762.264 119.477 762.486 119.921 762.93C120.365 763.375 120.587 764.023 120.587 764.874V770H118.782V765.153C118.782 764.679 118.657 764.332 118.405 764.114C118.153 763.892 117.845 763.781 117.48 763.781C117.046 763.781 116.706 763.916 116.461 764.188C116.219 764.457 116.098 764.806 116.098 765.237V770H114.333V765.078C114.333 764.684 114.214 764.369 113.975 764.134C113.74 763.898 113.431 763.781 113.05 763.781C112.792 763.781 112.556 763.847 112.344 763.979C112.132 764.109 111.963 764.293 111.837 764.531C111.711 764.767 111.648 765.042 111.648 765.357V770H109.849ZM124.61 770.154C124.127 770.154 123.691 770.068 123.303 769.896C122.918 769.72 122.614 769.461 122.388 769.12C122.166 768.779 122.055 768.358 122.055 767.857C122.055 767.426 122.135 767.07 122.294 766.788C122.453 766.507 122.67 766.281 122.945 766.112C123.22 765.943 123.53 765.816 123.875 765.729C124.223 765.64 124.582 765.575 124.953 765.536C125.401 765.489 125.764 765.448 126.042 765.411C126.321 765.372 126.523 765.312 126.649 765.232C126.778 765.149 126.843 765.022 126.843 764.849V764.82C126.843 764.445 126.732 764.155 126.51 763.95C126.288 763.744 125.968 763.641 125.55 763.641C125.109 763.641 124.76 763.738 124.501 763.93C124.246 764.122 124.074 764.349 123.984 764.611L122.304 764.372C122.436 763.908 122.655 763.52 122.96 763.209C123.265 762.894 123.638 762.659 124.078 762.503C124.519 762.344 125.007 762.264 125.54 762.264C125.908 762.264 126.274 762.307 126.639 762.394C127.003 762.48 127.337 762.622 127.638 762.821C127.94 763.017 128.182 763.283 128.364 763.622C128.55 763.96 128.642 764.382 128.642 764.889V770H126.912V768.951H126.853C126.743 769.163 126.589 769.362 126.39 769.548C126.195 769.73 125.948 769.877 125.65 769.99C125.355 770.099 125.008 770.154 124.61 770.154ZM125.078 768.832C125.439 768.832 125.752 768.76 126.017 768.618C126.283 768.472 126.486 768.28 126.629 768.041C126.775 767.803 126.848 767.542 126.848 767.261V766.361C126.791 766.407 126.695 766.45 126.559 766.49C126.427 766.53 126.278 766.565 126.112 766.595C125.946 766.624 125.782 766.651 125.62 766.674C125.457 766.697 125.316 766.717 125.197 766.734C124.929 766.77 124.688 766.83 124.476 766.913C124.264 766.996 124.097 767.112 123.974 767.261C123.851 767.407 123.79 767.595 123.79 767.827C123.79 768.159 123.911 768.409 124.153 768.578C124.395 768.747 124.703 768.832 125.078 768.832ZM132.252 765.526V770H130.452V762.364H132.172V763.661H132.262C132.437 763.234 132.717 762.894 133.102 762.642C133.49 762.39 133.969 762.264 134.539 762.264C135.066 762.264 135.525 762.377 135.916 762.602C136.31 762.828 136.615 763.154 136.831 763.582C137.049 764.009 137.157 764.528 137.154 765.138V770H135.354V765.416C135.354 764.906 135.221 764.506 134.956 764.218C134.694 763.93 134.332 763.786 133.868 763.786C133.553 763.786 133.273 763.855 133.027 763.994C132.785 764.13 132.595 764.327 132.456 764.586C132.32 764.845 132.252 765.158 132.252 765.526ZM141.181 770.154C140.697 770.154 140.261 770.068 139.873 769.896C139.489 769.72 139.184 769.461 138.958 769.12C138.736 768.779 138.625 768.358 138.625 767.857C138.625 767.426 138.705 767.07 138.864 766.788C139.023 766.507 139.24 766.281 139.515 766.112C139.79 765.943 140.1 765.816 140.445 765.729C140.793 765.64 141.153 765.575 141.524 765.536C141.971 765.489 142.334 765.448 142.613 765.411C142.891 765.372 143.093 765.312 143.219 765.232C143.348 765.149 143.413 765.022 143.413 764.849V764.82C143.413 764.445 143.302 764.155 143.08 763.95C142.858 763.744 142.538 763.641 142.12 763.641C141.68 763.641 141.33 763.738 141.071 763.93C140.816 764.122 140.644 764.349 140.554 764.611L138.874 764.372C139.007 763.908 139.225 763.52 139.53 763.209C139.835 762.894 140.208 762.659 140.649 762.503C141.09 762.344 141.577 762.264 142.11 762.264C142.478 762.264 142.845 762.307 143.209 762.394C143.574 762.48 143.907 762.622 144.208 762.821C144.51 763.017 144.752 763.283 144.934 763.622C145.12 763.96 145.213 764.382 145.213 764.889V770H143.483V768.951H143.423C143.314 769.163 143.159 769.362 142.961 769.548C142.765 769.73 142.518 769.877 142.22 769.99C141.925 770.099 141.578 770.154 141.181 770.154ZM141.648 768.832C142.009 768.832 142.323 768.76 142.588 768.618C142.853 768.472 143.057 768.28 143.199 768.041C143.345 767.803 143.418 767.542 143.418 767.261V766.361C143.362 766.407 143.266 766.45 143.13 766.49C142.997 766.53 142.848 766.565 142.682 766.595C142.516 766.624 142.352 766.651 142.19 766.674C142.028 766.697 141.887 766.717 141.767 766.734C141.499 766.77 141.259 766.83 141.047 766.913C140.834 766.996 140.667 767.112 140.544 767.261C140.422 767.407 140.36 767.595 140.36 767.827C140.36 768.159 140.481 768.409 140.723 768.578C140.965 768.747 141.274 768.832 141.648 768.832ZM150.343 773.023C149.697 773.023 149.142 772.935 148.678 772.759C148.214 772.587 147.841 772.355 147.559 772.063C147.278 771.772 147.082 771.448 146.973 771.094L148.593 770.701C148.666 770.85 148.772 770.998 148.912 771.144C149.051 771.293 149.238 771.415 149.473 771.511C149.712 771.611 150.012 771.661 150.373 771.661C150.884 771.661 151.306 771.536 151.641 771.288C151.976 771.042 152.143 770.638 152.143 770.075V768.628H152.054C151.961 768.814 151.825 769.004 151.646 769.2C151.47 769.395 151.237 769.559 150.945 769.692C150.657 769.824 150.294 769.891 149.856 769.891C149.27 769.891 148.738 769.753 148.26 769.478C147.786 769.2 147.408 768.785 147.127 768.235C146.848 767.682 146.709 766.989 146.709 766.157C146.709 765.318 146.848 764.611 147.127 764.034C147.408 763.454 147.788 763.015 148.265 762.717C148.743 762.415 149.275 762.264 149.861 762.264C150.309 762.264 150.676 762.34 150.965 762.493C151.257 762.642 151.489 762.823 151.661 763.035C151.833 763.244 151.964 763.441 152.054 763.626H152.153V762.364H153.928V770.124C153.928 770.777 153.772 771.318 153.461 771.745C153.149 772.173 152.723 772.492 152.183 772.705C151.643 772.917 151.029 773.023 150.343 773.023ZM150.358 768.479C150.739 768.479 151.064 768.386 151.333 768.2C151.601 768.015 151.805 767.748 151.944 767.4C152.083 767.052 152.153 766.634 152.153 766.147C152.153 765.666 152.083 765.246 151.944 764.884C151.808 764.523 151.606 764.243 151.338 764.044C151.073 763.842 150.746 763.741 150.358 763.741C149.957 763.741 149.623 763.845 149.354 764.054C149.086 764.263 148.883 764.55 148.748 764.914C148.612 765.275 148.544 765.686 148.544 766.147C148.544 766.614 148.612 767.024 148.748 767.375C148.887 767.723 149.091 767.995 149.359 768.19C149.631 768.383 149.964 768.479 150.358 768.479ZM159.153 770.149C158.387 770.149 157.726 769.99 157.169 769.672C156.616 769.35 156.19 768.896 155.892 768.31C155.593 767.72 155.444 767.025 155.444 766.227C155.444 765.441 155.593 764.752 155.892 764.158C156.193 763.562 156.614 763.098 157.154 762.766C157.695 762.432 158.329 762.264 159.059 762.264C159.529 762.264 159.973 762.34 160.391 762.493C160.812 762.642 161.183 762.874 161.505 763.189C161.829 763.504 162.085 763.905 162.27 764.392C162.456 764.876 162.549 765.453 162.549 766.122V766.674H156.289V765.461H160.824C160.82 765.116 160.746 764.81 160.6 764.541C160.454 764.269 160.25 764.056 159.988 763.9C159.73 763.744 159.428 763.666 159.083 763.666C158.716 763.666 158.392 763.756 158.114 763.935C157.836 764.11 157.618 764.342 157.463 764.631C157.31 764.916 157.232 765.229 157.229 765.57V766.629C157.229 767.073 157.31 767.455 157.473 767.773C157.635 768.088 157.862 768.33 158.154 768.499C158.445 768.664 158.787 768.747 159.178 768.747C159.44 768.747 159.677 768.711 159.889 768.638C160.101 768.562 160.285 768.451 160.441 768.305C160.596 768.159 160.714 767.978 160.794 767.763L162.474 767.952C162.368 768.396 162.166 768.784 161.868 769.115C161.573 769.443 161.195 769.698 160.734 769.881C160.273 770.06 159.746 770.149 159.153 770.149ZM164.071 770V762.364H165.816V763.636H165.896C166.035 763.196 166.274 762.856 166.612 762.617C166.953 762.375 167.343 762.254 167.78 762.254C167.879 762.254 167.99 762.259 168.113 762.269C168.239 762.276 168.343 762.287 168.426 762.304V763.96C168.35 763.933 168.229 763.91 168.063 763.89C167.901 763.867 167.744 763.855 167.591 763.855C167.263 763.855 166.968 763.926 166.706 764.069C166.448 764.208 166.244 764.402 166.095 764.651C165.945 764.899 165.871 765.186 165.871 765.511V770H164.071ZM176.908 762.364V763.756H172.518V762.364H176.908ZM173.602 760.534H175.401V767.703C175.401 767.945 175.438 768.131 175.511 768.26C175.587 768.386 175.686 768.472 175.809 768.519C175.932 768.565 176.068 768.588 176.217 768.588C176.329 768.588 176.432 768.58 176.525 768.563C176.621 768.547 176.694 768.532 176.744 768.519L177.047 769.925C176.951 769.959 176.813 769.995 176.634 770.035C176.459 770.075 176.243 770.098 175.988 770.104C175.537 770.118 175.131 770.05 174.77 769.901C174.409 769.748 174.122 769.513 173.91 769.195C173.701 768.876 173.598 768.479 173.602 768.001V760.534ZM181.662 770.149C180.916 770.149 180.27 769.985 179.723 769.657C179.176 769.329 178.752 768.87 178.45 768.28C178.152 767.69 178.003 767.001 178.003 766.212C178.003 765.423 178.152 764.732 178.45 764.139C178.752 763.545 179.176 763.085 179.723 762.756C180.27 762.428 180.916 762.264 181.662 762.264C182.408 762.264 183.054 762.428 183.601 762.756C184.148 763.085 184.57 763.545 184.869 764.139C185.17 764.732 185.321 765.423 185.321 766.212C185.321 767.001 185.17 767.69 184.869 768.28C184.57 768.87 184.148 769.329 183.601 769.657C183.054 769.985 182.408 770.149 181.662 770.149ZM181.672 768.707C182.076 768.707 182.414 768.596 182.686 768.374C182.958 768.149 183.16 767.847 183.293 767.47C183.429 767.092 183.496 766.671 183.496 766.207C183.496 765.739 183.429 765.317 183.293 764.939C183.16 764.558 182.958 764.255 182.686 764.029C182.414 763.804 182.076 763.691 181.672 763.691C181.258 763.691 180.913 763.804 180.638 764.029C180.366 764.255 180.162 764.558 180.026 764.939C179.894 765.317 179.827 765.739 179.827 766.207C179.827 766.671 179.894 767.092 180.026 767.47C180.162 767.847 180.366 768.149 180.638 768.374C180.913 768.596 181.258 768.707 181.672 768.707ZM190.321 770V762.364H192.041V763.661H192.131C192.29 763.224 192.553 762.882 192.921 762.637C193.289 762.389 193.728 762.264 194.239 762.264C194.756 762.264 195.192 762.39 195.546 762.642C195.904 762.891 196.156 763.23 196.302 763.661H196.382C196.551 763.237 196.836 762.899 197.237 762.647C197.641 762.392 198.12 762.264 198.673 762.264C199.376 762.264 199.95 762.486 200.394 762.93C200.838 763.375 201.06 764.023 201.06 764.874V770H199.255V765.153C199.255 764.679 199.129 764.332 198.877 764.114C198.625 763.892 198.317 763.781 197.953 763.781C197.518 763.781 197.179 763.916 196.933 764.188C196.691 764.457 196.57 764.806 196.57 765.237V770H194.806V765.078C194.806 764.684 194.686 764.369 194.448 764.134C194.212 763.898 193.904 763.781 193.523 763.781C193.264 763.781 193.029 763.847 192.817 763.979C192.605 764.109 192.436 764.293 192.31 764.531C192.184 764.767 192.121 765.042 192.121 765.357V770H190.321ZM205.083 770.154C204.599 770.154 204.163 770.068 203.776 769.896C203.391 769.72 203.086 769.461 202.861 769.12C202.639 768.779 202.528 768.358 202.528 767.857C202.528 767.426 202.607 767.07 202.766 766.788C202.925 766.507 203.143 766.281 203.418 766.112C203.693 765.943 204.003 765.816 204.347 765.729C204.695 765.64 205.055 765.575 205.426 765.536C205.874 765.489 206.237 765.448 206.515 765.411C206.793 765.372 206.996 765.312 207.121 765.232C207.251 765.149 207.315 765.022 207.315 764.849V764.82C207.315 764.445 207.204 764.155 206.982 763.95C206.76 763.744 206.44 763.641 206.023 763.641C205.582 763.641 205.232 763.738 204.974 763.93C204.719 764.122 204.546 764.349 204.457 764.611L202.776 764.372C202.909 763.908 203.128 763.52 203.433 763.209C203.737 762.894 204.11 762.659 204.551 762.503C204.992 762.344 205.479 762.264 206.013 762.264C206.381 762.264 206.747 762.307 207.112 762.394C207.476 762.48 207.809 762.622 208.111 762.821C208.412 763.017 208.654 763.283 208.837 763.622C209.022 763.96 209.115 764.382 209.115 764.889V770H207.385V768.951H207.325C207.216 769.163 207.062 769.362 206.863 769.548C206.667 769.73 206.42 769.877 206.122 769.99C205.827 770.099 205.481 770.154 205.083 770.154ZM205.55 768.832C205.912 768.832 206.225 768.76 206.49 768.618C206.755 768.472 206.959 768.28 207.102 768.041C207.247 767.803 207.32 767.542 207.32 767.261V766.361C207.264 766.407 207.168 766.45 207.032 766.49C206.899 766.53 206.75 766.565 206.585 766.595C206.419 766.624 206.255 766.651 206.092 766.674C205.93 766.697 205.789 766.717 205.67 766.734C205.401 766.77 205.161 766.83 204.949 766.913C204.737 766.996 204.569 767.112 204.447 767.261C204.324 767.407 204.263 767.595 204.263 767.827C204.263 768.159 204.384 768.409 204.626 768.578C204.868 768.747 205.176 768.832 205.55 768.832ZM212.565 767.604L212.56 765.431H212.849L215.593 762.364H217.696L214.32 766.122H213.947L212.565 767.604ZM210.925 770V759.818H212.724V770H210.925ZM215.717 770L213.232 766.525L214.445 765.257L217.87 770H215.717ZM221.962 770.149C221.196 770.149 220.535 769.99 219.978 769.672C219.424 769.35 218.999 768.896 218.7 768.31C218.402 767.72 218.253 767.025 218.253 766.227C218.253 765.441 218.402 764.752 218.7 764.158C219.002 763.562 219.423 763.098 219.963 762.766C220.503 762.432 221.138 762.264 221.867 762.264C222.338 762.264 222.782 762.34 223.2 762.493C223.621 762.642 223.992 762.874 224.313 763.189C224.638 763.504 224.893 763.905 225.079 764.392C225.264 764.876 225.357 765.453 225.357 766.122V766.674H219.098V765.461H223.632C223.629 765.116 223.554 764.81 223.408 764.541C223.263 764.269 223.059 764.056 222.797 763.9C222.538 763.744 222.237 763.666 221.892 763.666C221.524 763.666 221.201 763.756 220.923 763.935C220.644 764.11 220.427 764.342 220.271 764.631C220.119 764.916 220.041 765.229 220.038 765.57V766.629C220.038 767.073 220.119 767.455 220.281 767.773C220.444 768.088 220.671 768.33 220.962 768.499C221.254 768.664 221.595 768.747 221.987 768.747C222.248 768.747 222.485 768.711 222.697 768.638C222.91 768.562 223.094 768.451 223.249 768.305C223.405 768.159 223.523 767.978 223.602 767.763L225.283 767.952C225.177 768.396 224.974 768.784 224.676 769.115C224.381 769.443 224.003 769.698 223.543 769.881C223.082 770.06 222.555 770.149 221.962 770.149ZM231.471 772.864C231.226 772.864 230.999 772.844 230.79 772.804C230.584 772.768 230.42 772.724 230.298 772.675L230.715 771.273C230.977 771.349 231.211 771.385 231.416 771.382C231.622 771.379 231.802 771.314 231.958 771.188C232.117 771.066 232.252 770.86 232.361 770.572L232.515 770.159L229.746 762.364H231.655L233.415 768.131H233.494L235.259 762.364H237.173L234.116 770.925C233.973 771.329 233.785 771.675 233.549 771.964C233.314 772.256 233.026 772.478 232.684 772.63C232.346 772.786 231.942 772.864 231.471 772.864ZM241.49 770.149C240.744 770.149 240.098 769.985 239.551 769.657C239.004 769.329 238.58 768.87 238.278 768.28C237.98 767.69 237.831 767.001 237.831 766.212C237.831 765.423 237.98 764.732 238.278 764.139C238.58 763.545 239.004 763.085 239.551 762.756C240.098 762.428 240.744 762.264 241.49 762.264C242.236 762.264 242.882 762.428 243.429 762.756C243.976 763.085 244.398 763.545 244.697 764.139C244.998 764.732 245.149 765.423 245.149 766.212C245.149 767.001 244.998 767.69 244.697 768.28C244.398 768.87 243.976 769.329 243.429 769.657C242.882 769.985 242.236 770.149 241.49 770.149ZM241.5 768.707C241.904 768.707 242.242 768.596 242.514 768.374C242.786 768.149 242.988 767.847 243.121 767.47C243.257 767.092 243.325 766.671 243.325 766.207C243.325 765.739 243.257 765.317 243.121 764.939C242.988 764.558 242.786 764.255 242.514 764.029C242.242 763.804 241.904 763.691 241.5 763.691C241.086 763.691 240.741 763.804 240.466 764.029C240.194 764.255 239.99 764.558 239.854 764.939C239.722 765.317 239.656 765.739 239.656 766.207C239.656 766.671 239.722 767.092 239.854 767.47C239.99 767.847 240.194 768.149 240.466 768.374C240.741 768.596 241.086 768.707 241.5 768.707ZM251.544 766.788V762.364H253.344V770H251.599V768.643H251.519C251.347 769.07 251.063 769.42 250.669 769.692C250.278 769.964 249.796 770.099 249.222 770.099C248.722 770.099 248.279 769.988 247.895 769.766C247.514 769.541 247.215 769.215 247 768.787C246.784 768.356 246.677 767.836 246.677 767.226V762.364H248.476V766.948C248.476 767.431 248.609 767.816 248.874 768.101C249.139 768.386 249.487 768.528 249.918 768.528C250.183 768.528 250.44 768.464 250.689 768.335C250.937 768.205 251.141 768.013 251.3 767.758C251.463 767.499 251.544 767.176 251.544 766.788ZM255.194 770V762.364H256.939V763.636H257.019C257.158 763.196 257.397 762.856 257.735 762.617C258.076 762.375 258.466 762.254 258.903 762.254C259.002 762.254 259.114 762.259 259.236 762.269C259.362 762.276 259.467 762.287 259.549 762.304V763.96C259.473 763.933 259.352 763.91 259.186 763.89C259.024 763.867 258.867 763.855 258.714 763.855C258.386 763.855 258.091 763.926 257.829 764.069C257.571 764.208 257.367 764.402 257.218 764.651C257.069 764.899 256.994 765.186 256.994 765.511V770H255.194ZM265.794 770L263.636 762.364H265.471L266.813 767.733H266.882L268.255 762.364H270.069L271.441 767.703H271.516L272.838 762.364H274.678L272.515 770H270.641L269.209 764.84H269.105L267.673 770H265.794ZM279.047 770.149C278.301 770.149 277.655 769.985 277.108 769.657C276.561 769.329 276.137 768.87 275.835 768.28C275.537 767.69 275.388 767.001 275.388 766.212C275.388 765.423 275.537 764.732 275.835 764.139C276.137 763.545 276.561 763.085 277.108 762.756C277.655 762.428 278.301 762.264 279.047 762.264C279.792 762.264 280.439 762.428 280.986 762.756C281.532 763.085 281.955 763.545 282.253 764.139C282.555 764.732 282.706 765.423 282.706 766.212C282.706 767.001 282.555 767.69 282.253 768.28C281.955 768.87 281.532 769.329 280.986 769.657C280.439 769.985 279.792 770.149 279.047 770.149ZM279.057 768.707C279.461 768.707 279.799 768.596 280.071 768.374C280.343 768.149 280.545 767.847 280.677 767.47C280.813 767.092 280.881 766.671 280.881 766.207C280.881 765.739 280.813 765.317 280.677 764.939C280.545 764.558 280.343 764.255 280.071 764.029C279.799 763.804 279.461 763.691 279.057 763.691C278.642 763.691 278.298 763.804 278.023 764.029C277.751 764.255 277.547 764.558 277.411 764.939C277.278 765.317 277.212 765.739 277.212 766.207C277.212 766.671 277.278 767.092 277.411 767.47C277.547 767.847 277.751 768.149 278.023 768.374C278.298 768.596 278.642 768.707 279.057 768.707ZM284.233 770V762.364H285.978V763.636H286.058C286.197 763.196 286.436 762.856 286.774 762.617C287.115 762.375 287.505 762.254 287.942 762.254C288.042 762.254 288.153 762.259 288.275 762.269C288.401 762.276 288.506 762.287 288.588 762.304V763.96C288.512 763.933 288.391 763.91 288.225 763.89C288.063 763.867 287.906 763.855 287.753 763.855C287.425 763.855 287.13 763.926 286.868 764.069C286.61 764.208 286.406 764.402 286.257 764.651C286.108 764.899 286.033 765.186 286.033 765.511V770H284.233ZM291.584 759.818V770H289.784V759.818H291.584ZM300.288 770.149C299.522 770.149 298.861 769.99 298.304 769.672C297.751 769.35 297.325 768.896 297.026 768.31C296.728 767.72 296.579 767.025 296.579 766.227C296.579 765.441 296.728 764.752 297.026 764.158C297.328 763.562 297.749 763.098 298.289 762.766C298.829 762.432 299.464 762.264 300.193 762.264C300.664 762.264 301.108 762.34 301.526 762.493C301.947 762.642 302.318 762.874 302.639 763.189C302.964 763.504 303.219 763.905 303.405 764.392C303.591 764.876 303.683 765.453 303.683 766.122V766.674H297.424V765.461H301.958C301.955 765.116 301.88 764.81 301.735 764.541C301.589 764.269 301.385 764.056 301.123 763.9C300.865 763.744 300.563 763.666 300.218 763.666C299.85 763.666 299.527 763.756 299.249 763.935C298.97 764.11 298.753 764.342 298.597 764.631C298.445 764.916 298.367 765.229 298.364 765.57V766.629C298.364 767.073 298.445 767.455 298.607 767.773C298.77 768.088 298.997 768.33 299.289 768.499C299.58 768.664 299.922 768.747 300.313 768.747C300.575 768.747 300.811 768.711 301.024 768.638C301.236 768.562 301.42 768.451 301.575 768.305C301.731 768.159 301.849 767.978 301.928 767.763L303.609 767.952C303.503 768.396 303.301 768.784 303.002 769.115C302.707 769.443 302.329 769.698 301.869 769.881C301.408 770.06 300.881 770.149 300.288 770.149ZM307.403 770.154C306.92 770.154 306.484 770.068 306.096 769.896C305.711 769.72 305.406 769.461 305.181 769.12C304.959 768.779 304.848 768.358 304.848 767.857C304.848 767.426 304.928 767.07 305.087 766.788C305.246 766.507 305.463 766.281 305.738 766.112C306.013 765.943 306.323 765.816 306.668 765.729C307.016 765.64 307.375 765.575 307.746 765.536C308.194 765.489 308.557 765.448 308.835 765.411C309.114 765.372 309.316 765.312 309.442 765.232C309.571 765.149 309.636 765.022 309.636 764.849V764.82C309.636 764.445 309.525 764.155 309.303 763.95C309.08 763.744 308.761 763.641 308.343 763.641C307.902 763.641 307.553 763.738 307.294 763.93C307.039 764.122 306.866 764.349 306.777 764.611L305.097 764.372C305.229 763.908 305.448 763.52 305.753 763.209C306.058 762.894 306.431 762.659 306.871 762.503C307.312 762.344 307.799 762.264 308.333 762.264C308.701 762.264 309.067 762.307 309.432 762.394C309.796 762.48 310.129 762.622 310.431 762.821C310.733 763.017 310.975 763.283 311.157 763.622C311.343 763.96 311.435 764.382 311.435 764.889V770H309.705V768.951H309.646C309.536 769.163 309.382 769.362 309.183 769.548C308.988 769.73 308.741 769.877 308.442 769.99C308.147 770.099 307.801 770.154 307.403 770.154ZM307.871 768.832C308.232 768.832 308.545 768.76 308.81 768.618C309.076 768.472 309.279 768.28 309.422 768.041C309.568 767.803 309.641 767.542 309.641 767.261V766.361C309.584 766.407 309.488 766.45 309.352 766.49C309.22 766.53 309.071 766.565 308.905 766.595C308.739 766.624 308.575 766.651 308.413 766.674C308.25 766.697 308.109 766.717 307.99 766.734C307.722 766.77 307.481 766.83 307.269 766.913C307.057 766.996 306.89 767.112 306.767 767.261C306.644 767.407 306.583 767.595 306.583 767.827C306.583 768.159 306.704 768.409 306.946 768.578C307.188 768.747 307.496 768.832 307.871 768.832ZM313.245 770V762.364H315.045V770H313.245ZM314.15 761.28C313.865 761.28 313.62 761.185 313.414 760.997C313.209 760.804 313.106 760.574 313.106 760.305C313.106 760.034 313.209 759.803 313.414 759.614C313.62 759.422 313.865 759.326 314.15 759.326C314.438 759.326 314.683 759.422 314.886 759.614C315.091 759.803 315.194 760.034 315.194 760.305C315.194 760.574 315.091 760.804 314.886 760.997C314.683 761.185 314.438 761.28 314.15 761.28ZM322.931 764.382L321.29 764.561C321.244 764.395 321.163 764.24 321.047 764.094C320.934 763.948 320.782 763.83 320.589 763.741C320.397 763.651 320.162 763.607 319.883 763.607C319.509 763.607 319.194 763.688 318.939 763.85C318.687 764.013 318.563 764.223 318.566 764.482C318.563 764.704 318.644 764.884 318.809 765.023C318.979 765.163 319.257 765.277 319.645 765.367L320.947 765.645C321.67 765.801 322.207 766.048 322.558 766.386C322.913 766.724 323.092 767.166 323.095 767.713C323.092 768.194 322.951 768.618 322.672 768.986C322.397 769.35 322.015 769.635 321.524 769.841C321.033 770.046 320.47 770.149 319.834 770.149C318.899 770.149 318.147 769.954 317.577 769.563C317.006 769.168 316.667 768.62 316.557 767.917L318.312 767.748C318.392 768.093 318.561 768.353 318.819 768.528C319.078 768.704 319.414 768.792 319.829 768.792C320.256 768.792 320.599 768.704 320.858 768.528C321.12 768.353 321.251 768.136 321.251 767.877C321.251 767.658 321.166 767.478 320.997 767.335C320.831 767.193 320.573 767.083 320.221 767.007L318.919 766.734C318.186 766.581 317.644 766.324 317.293 765.963C316.942 765.599 316.768 765.138 316.771 764.581C316.768 764.11 316.895 763.703 317.154 763.358C317.416 763.01 317.779 762.742 318.243 762.553C318.71 762.36 319.249 762.264 319.858 762.264C320.753 762.264 321.458 762.455 321.971 762.836C322.488 763.217 322.808 763.733 322.931 764.382ZM327.96 770.149C327.194 770.149 326.533 769.99 325.976 769.672C325.423 769.35 324.997 768.896 324.698 768.31C324.4 767.72 324.251 767.025 324.251 766.227C324.251 765.441 324.4 764.752 324.698 764.158C325 763.562 325.421 763.098 325.961 762.766C326.501 762.432 327.136 762.264 327.865 762.264C328.336 762.264 328.78 762.34 329.198 762.493C329.619 762.642 329.99 762.874 330.311 763.189C330.636 763.504 330.891 763.905 331.077 764.392C331.262 764.876 331.355 765.453 331.355 766.122V766.674H325.096V765.461H329.63C329.627 765.116 329.552 764.81 329.406 764.541C329.261 764.269 329.057 764.056 328.795 763.9C328.536 763.744 328.235 763.666 327.89 763.666C327.522 763.666 327.199 763.756 326.921 763.935C326.642 764.11 326.425 764.342 326.269 764.631C326.117 764.916 326.039 765.229 326.036 765.57V766.629C326.036 767.073 326.117 767.455 326.279 767.773C326.442 768.088 326.669 768.33 326.96 768.499C327.252 768.664 327.593 768.747 327.985 768.747C328.246 768.747 328.483 768.711 328.695 768.638C328.908 768.562 329.092 768.451 329.247 768.305C329.403 768.159 329.521 767.978 329.6 767.763L331.281 767.952C331.175 768.396 330.972 768.784 330.674 769.115C330.379 769.443 330.001 769.698 329.541 769.881C329.08 770.06 328.553 770.149 327.96 770.149ZM332.878 770V762.364H334.623V763.636H334.702C334.842 763.196 335.08 762.856 335.418 762.617C335.76 762.375 336.149 762.254 336.587 762.254C336.686 762.254 336.797 762.259 336.92 762.269C337.046 762.276 337.15 762.287 337.233 762.304V763.96C337.157 763.933 337.036 763.91 336.87 763.89C336.708 763.867 336.55 763.855 336.398 763.855C336.07 763.855 335.775 763.926 335.513 764.069C335.254 764.208 335.05 764.402 334.901 764.651C334.752 764.899 334.678 765.186 334.678 765.511V770H332.878Z" fill="#E6ECF1"/>
<rect x="232" y="814" width="169" height="64" rx="32" fill="white"/>
<path d="M284.825 844.07C284.742 843.801 284.628 843.561 284.482 843.349C284.34 843.133 284.167 842.949 283.965 842.797C283.766 842.644 283.538 842.53 283.279 842.454C283.021 842.374 282.739 842.335 282.434 842.335C281.887 842.335 281.4 842.472 280.972 842.747C280.545 843.022 280.208 843.427 279.963 843.96C279.721 844.491 279.6 845.137 279.6 845.899C279.6 846.668 279.721 847.319 279.963 847.853C280.205 848.387 280.541 848.793 280.972 849.071C281.403 849.346 281.904 849.484 282.474 849.484C282.991 849.484 283.438 849.384 283.816 849.185C284.197 848.987 284.491 848.705 284.696 848.34C284.902 847.972 285.004 847.541 285.004 847.048L285.422 847.112H282.658V845.67H286.789V846.893C286.789 847.765 286.603 848.519 286.232 849.156C285.861 849.792 285.351 850.282 284.701 850.627C284.051 850.969 283.306 851.139 282.464 851.139C281.526 851.139 280.702 850.929 279.993 850.508C279.287 850.084 278.735 849.482 278.337 848.703C277.943 847.921 277.746 846.993 277.746 845.919C277.746 845.097 277.862 844.363 278.094 843.717C278.329 843.07 278.657 842.522 279.078 842.071C279.499 841.617 279.993 841.272 280.56 841.037C281.126 840.798 281.743 840.679 282.409 840.679C282.973 840.679 283.498 840.762 283.985 840.928C284.472 841.09 284.905 841.322 285.283 841.624C285.664 841.925 285.977 842.283 286.222 842.697C286.468 843.112 286.628 843.569 286.705 844.07H284.825ZM291.874 851.149C291.108 851.149 290.447 850.99 289.89 850.672C289.337 850.35 288.911 849.896 288.612 849.31C288.314 848.72 288.165 848.025 288.165 847.227C288.165 846.441 288.314 845.752 288.612 845.158C288.914 844.562 289.335 844.098 289.875 843.766C290.415 843.432 291.05 843.264 291.779 843.264C292.25 843.264 292.694 843.34 293.112 843.493C293.533 843.642 293.904 843.874 294.225 844.189C294.55 844.504 294.805 844.905 294.991 845.392C295.177 845.876 295.269 846.453 295.269 847.122V847.674H289.01V846.461H293.544C293.541 846.116 293.466 845.81 293.32 845.541C293.175 845.269 292.971 845.056 292.709 844.9C292.45 844.744 292.149 844.666 291.804 844.666C291.436 844.666 291.113 844.756 290.835 844.935C290.556 845.11 290.339 845.342 290.183 845.631C290.031 845.916 289.953 846.229 289.95 846.57V847.629C289.95 848.073 290.031 848.455 290.193 848.773C290.356 849.088 290.583 849.33 290.874 849.499C291.166 849.664 291.508 849.747 291.899 849.747C292.16 849.747 292.397 849.711 292.61 849.638C292.822 849.562 293.006 849.451 293.161 849.305C293.317 849.159 293.435 848.978 293.514 848.763L295.195 848.952C295.089 849.396 294.887 849.784 294.588 850.115C294.293 850.443 293.915 850.698 293.455 850.881C292.994 851.06 292.467 851.149 291.874 851.149ZM300.605 843.364V844.756H296.215V843.364H300.605ZM297.299 841.534H299.099V848.703C299.099 848.945 299.135 849.131 299.208 849.26C299.284 849.386 299.384 849.472 299.506 849.518C299.629 849.565 299.765 849.588 299.914 849.588C300.027 849.588 300.129 849.58 300.222 849.563C300.318 849.547 300.391 849.532 300.441 849.518L300.744 850.925C300.648 850.959 300.511 850.995 300.332 851.035C300.156 851.075 299.941 851.098 299.685 851.104C299.235 851.118 298.829 851.05 298.467 850.901C298.106 850.748 297.819 850.513 297.607 850.195C297.398 849.876 297.296 849.479 297.299 849.001V841.534ZM311.196 843.617C311.149 843.183 310.954 842.845 310.609 842.603C310.268 842.361 309.824 842.24 309.277 842.24C308.892 842.24 308.563 842.298 308.287 842.414C308.012 842.53 307.802 842.687 307.656 842.886C307.51 843.085 307.436 843.312 307.432 843.567C307.432 843.78 307.48 843.964 307.577 844.119C307.676 844.275 307.81 844.408 307.979 844.517C308.148 844.623 308.336 844.713 308.541 844.786C308.747 844.858 308.954 844.92 309.162 844.969L310.117 845.208C310.501 845.298 310.871 845.419 311.226 845.571C311.584 845.723 311.903 845.916 312.185 846.148C312.47 846.38 312.696 846.66 312.861 846.988C313.027 847.316 313.11 847.701 313.11 848.141C313.11 848.738 312.957 849.263 312.653 849.717C312.348 850.168 311.907 850.521 311.33 850.776C310.757 851.028 310.062 851.154 309.247 851.154C308.455 851.154 307.767 851.031 307.184 850.786C306.604 850.541 306.15 850.183 305.822 849.712C305.497 849.242 305.321 848.668 305.295 847.992H307.109C307.136 848.347 307.245 848.642 307.437 848.877C307.63 849.112 307.88 849.288 308.188 849.404C308.5 849.52 308.848 849.578 309.232 849.578C309.633 849.578 309.984 849.518 310.286 849.399C310.591 849.277 310.83 849.107 311.002 848.892C311.174 848.673 311.262 848.418 311.265 848.126C311.262 847.861 311.184 847.643 311.032 847.47C310.879 847.295 310.666 847.149 310.39 847.033C310.119 846.913 309.8 846.807 309.436 846.714L308.278 846.416C307.439 846.201 306.776 845.874 306.289 845.437C305.805 844.996 305.563 844.411 305.563 843.682C305.563 843.082 305.725 842.557 306.05 842.106C306.378 841.655 306.824 841.305 307.388 841.057C307.951 840.805 308.589 840.679 309.302 840.679C310.024 840.679 310.657 840.805 311.201 841.057C311.748 841.305 312.177 841.652 312.488 842.096C312.8 842.537 312.961 843.044 312.971 843.617H311.196ZM318.488 843.364V844.756H314.098V843.364H318.488ZM315.182 841.534H316.982V848.703C316.982 848.945 317.018 849.131 317.091 849.26C317.167 849.386 317.267 849.472 317.389 849.518C317.512 849.565 317.648 849.588 317.797 849.588C317.91 849.588 318.012 849.58 318.105 849.563C318.201 849.547 318.274 849.532 318.324 849.518L318.627 850.925C318.531 850.959 318.393 850.995 318.214 851.035C318.039 851.075 317.823 851.098 317.568 851.104C317.117 851.118 316.711 851.05 316.35 850.901C315.989 850.748 315.702 850.513 315.49 850.195C315.281 849.876 315.179 849.479 315.182 849.001V841.534ZM322.191 851.154C321.707 851.154 321.271 851.068 320.883 850.896C320.499 850.72 320.194 850.461 319.968 850.12C319.746 849.779 319.635 849.358 319.635 848.857C319.635 848.426 319.715 848.07 319.874 847.788C320.033 847.507 320.25 847.281 320.525 847.112C320.8 846.943 321.11 846.816 321.455 846.729C321.803 846.64 322.162 846.575 322.534 846.536C322.981 846.489 323.344 846.448 323.622 846.411C323.901 846.371 324.103 846.312 324.229 846.232C324.358 846.149 324.423 846.022 324.423 845.849V845.82C324.423 845.445 324.312 845.155 324.09 844.95C323.868 844.744 323.548 844.641 323.13 844.641C322.689 844.641 322.34 844.737 322.081 844.93C321.826 845.122 321.654 845.349 321.564 845.611L319.884 845.372C320.016 844.908 320.235 844.52 320.54 844.209C320.845 843.894 321.218 843.659 321.659 843.503C322.099 843.344 322.587 843.264 323.12 843.264C323.488 843.264 323.854 843.307 324.219 843.393C324.584 843.48 324.917 843.622 325.218 843.821C325.52 844.017 325.762 844.283 325.944 844.621C326.13 844.96 326.222 845.382 326.222 845.889V851H324.492V849.951H324.433C324.323 850.163 324.169 850.362 323.97 850.548C323.775 850.73 323.528 850.877 323.23 850.99C322.935 851.099 322.588 851.154 322.191 851.154ZM322.658 849.832C323.019 849.832 323.332 849.76 323.597 849.618C323.863 849.472 324.066 849.28 324.209 849.041C324.355 848.803 324.428 848.542 324.428 848.261V847.361C324.371 847.407 324.275 847.45 324.139 847.49C324.007 847.53 323.858 847.565 323.692 847.594C323.526 847.624 323.362 847.651 323.2 847.674C323.037 847.697 322.896 847.717 322.777 847.734C322.509 847.77 322.268 847.83 322.056 847.913C321.844 847.996 321.677 848.112 321.554 848.261C321.432 848.406 321.37 848.595 321.37 848.827C321.37 849.159 321.491 849.409 321.733 849.578C321.975 849.747 322.283 849.832 322.658 849.832ZM328.032 851V843.364H329.777V844.636H329.857C329.996 844.196 330.235 843.856 330.573 843.617C330.914 843.375 331.303 843.254 331.741 843.254C331.84 843.254 331.951 843.259 332.074 843.269C332.2 843.276 332.304 843.287 332.387 843.304V844.96C332.311 844.933 332.19 844.91 332.024 844.89C331.862 844.867 331.704 844.855 331.552 844.855C331.224 844.855 330.929 844.926 330.667 845.069C330.409 845.208 330.205 845.402 330.056 845.651C329.906 845.899 329.832 846.186 329.832 846.511V851H328.032ZM337.806 843.364V844.756H333.416V843.364H337.806ZM334.5 841.534H336.3V848.703C336.3 848.945 336.336 849.131 336.409 849.26C336.485 849.386 336.585 849.472 336.708 849.518C336.83 849.565 336.966 849.588 337.115 849.588C337.228 849.588 337.331 849.58 337.423 849.563C337.52 849.547 337.593 849.532 337.642 849.518L337.945 850.925C337.849 850.959 337.712 850.995 337.533 851.035C337.357 851.075 337.142 851.098 336.887 851.104C336.436 851.118 336.03 851.05 335.669 850.901C335.307 850.748 335.021 850.513 334.808 850.195C334.6 849.876 334.497 849.479 334.5 849.001V841.534ZM342.61 851.149C341.844 851.149 341.183 850.99 340.626 850.672C340.073 850.35 339.647 849.896 339.349 849.31C339.05 848.72 338.901 848.025 338.901 847.227C338.901 846.441 339.05 845.752 339.349 845.158C339.65 844.562 340.071 844.098 340.612 843.766C341.152 843.432 341.786 843.264 342.516 843.264C342.986 843.264 343.43 843.34 343.848 843.493C344.269 843.642 344.64 843.874 344.962 844.189C345.286 844.504 345.542 844.905 345.727 845.392C345.913 845.876 346.006 846.453 346.006 847.122V847.674H339.746V846.461H344.281C344.277 846.116 344.203 845.81 344.057 845.541C343.911 845.269 343.707 845.056 343.445 844.9C343.187 844.744 342.885 844.666 342.54 844.666C342.173 844.666 341.849 844.756 341.571 844.935C341.293 845.11 341.076 845.342 340.92 845.631C340.767 845.916 340.689 846.229 340.686 846.57V847.629C340.686 848.073 340.767 848.455 340.93 848.773C341.092 849.088 341.319 849.33 341.611 849.499C341.902 849.664 342.244 849.747 342.635 849.747C342.897 849.747 343.134 849.711 343.346 849.638C343.558 849.562 343.742 849.451 343.898 849.305C344.054 849.159 344.171 848.978 344.251 848.763L345.931 848.952C345.825 849.396 345.623 849.784 345.325 850.115C345.03 850.443 344.652 850.698 344.191 850.881C343.73 851.06 343.203 851.149 342.61 851.149ZM350.362 851.134C349.762 851.134 349.225 850.98 348.751 850.672C348.277 850.364 347.903 849.916 347.628 849.33C347.353 848.743 347.215 848.03 347.215 847.192C347.215 846.343 347.354 845.627 347.633 845.044C347.914 844.457 348.294 844.015 348.771 843.717C349.248 843.415 349.78 843.264 350.367 843.264C350.814 843.264 351.182 843.34 351.471 843.493C351.759 843.642 351.988 843.823 352.157 844.035C352.326 844.244 352.457 844.441 352.55 844.626H352.624V840.818H354.429V851H352.659V849.797H352.55C352.457 849.982 352.323 850.18 352.147 850.388C351.971 850.594 351.739 850.77 351.451 850.915C351.162 851.061 350.8 851.134 350.362 851.134ZM350.864 849.658C351.245 849.658 351.57 849.555 351.839 849.349C352.107 849.141 352.311 848.851 352.45 848.479C352.589 848.108 352.659 847.676 352.659 847.182C352.659 846.688 352.589 846.259 352.45 845.894C352.314 845.53 352.112 845.246 351.844 845.044C351.578 844.842 351.252 844.741 350.864 844.741C350.463 844.741 350.128 844.845 349.86 845.054C349.591 845.263 349.389 845.551 349.253 845.919C349.117 846.287 349.05 846.708 349.05 847.182C349.05 847.659 349.117 848.085 349.253 848.46C349.393 848.831 349.596 849.124 349.865 849.339C350.137 849.552 350.47 849.658 350.864 849.658Z" fill="black"/>
<path d="M22.2912 137V123.909H30.6776V125.897H24.6626V129.451H30.1023V131.439H24.6626V137H22.2912ZM32.7358 137V127.182H35.0497V137H32.7358ZM33.8991 125.788C33.5327 125.788 33.2173 125.667 32.9531 125.424C32.6889 125.177 32.5568 124.881 32.5568 124.536C32.5568 124.186 32.6889 123.89 32.9531 123.647C33.2173 123.4 33.5327 123.276 33.8991 123.276C34.2699 123.276 34.5852 123.4 34.8452 123.647C35.1094 123.89 35.2415 124.186 35.2415 124.536C35.2415 124.881 35.1094 125.177 34.8452 125.424C34.5852 125.667 34.2699 125.788 33.8991 125.788ZM59.5712 137.192C58.6124 137.192 57.7814 136.981 57.0783 136.559C56.3752 136.137 55.8297 135.547 55.4419 134.788C55.0584 134.03 54.8667 133.143 54.8667 132.129C54.8667 131.115 55.0584 130.227 55.4419 129.464C55.8297 128.701 56.3752 128.109 57.0783 127.687C57.7814 127.265 58.6124 127.054 59.5712 127.054C60.53 127.054 61.361 127.265 62.0641 127.687C62.7672 128.109 63.3105 128.701 63.6941 129.464C64.0819 130.227 64.2757 131.115 64.2757 132.129C64.2757 133.143 64.0819 134.03 63.6941 134.788C63.3105 135.547 62.7672 136.137 62.0641 136.559C61.361 136.981 60.53 137.192 59.5712 137.192ZM59.584 135.338C60.1039 135.338 60.5385 135.195 60.888 134.91C61.2374 134.62 61.4973 134.232 61.6678 133.746C61.8425 133.261 61.9299 132.719 61.9299 132.123C61.9299 131.522 61.8425 130.979 61.6678 130.493C61.4973 130.003 61.2374 129.613 60.888 129.323C60.5385 129.033 60.1039 128.888 59.584 128.888C59.0513 128.888 58.6081 129.033 58.2544 129.323C57.905 129.613 57.6429 130.003 57.4682 130.493C57.2978 130.979 57.2125 131.522 57.2125 132.123C57.2125 132.719 57.2978 133.261 57.4682 133.746C57.6429 134.232 57.905 134.62 58.2544 134.91C58.6081 135.195 59.0513 135.338 59.584 135.338ZM68.5536 131.247V137H66.2397V127.182H68.4513V128.85H68.5664C68.7923 128.3 69.1523 127.864 69.6467 127.54C70.1452 127.216 70.761 127.054 71.494 127.054C72.1715 127.054 72.7617 127.199 73.2646 127.489C73.7717 127.778 74.1637 128.198 74.4407 128.748C74.7219 129.298 74.8604 129.964 74.8562 130.749V137H72.5423V131.107C72.5423 130.45 72.3718 129.937 72.0309 129.566C71.6942 129.195 71.2276 129.01 70.631 129.01C70.2262 129.01 69.8661 129.099 69.5508 129.278C69.2397 129.453 68.9947 129.707 68.8157 130.039C68.641 130.371 68.5536 130.774 68.5536 131.247ZM85.6268 127.182L82.1303 137H79.5735L76.0771 127.182H78.5444L80.8008 134.475H80.9031L83.1658 127.182H85.6268ZM93.1183 137.141C92.7305 137.141 92.3981 137.004 92.1211 136.732C91.8441 136.459 91.7077 136.126 91.712 135.734C91.7077 135.351 91.8441 135.023 92.1211 134.75C92.3981 134.477 92.7305 134.341 93.1183 134.341C93.4933 134.341 93.8192 134.477 94.0962 134.75C94.3775 135.023 94.5202 135.351 94.5245 135.734C94.5202 135.994 94.4521 136.231 94.32 136.444C94.1921 136.657 94.0217 136.827 93.8086 136.955C93.5998 137.079 93.3697 137.141 93.1183 137.141Z" fill="#011734"/>
<path d="M45 138.5C49.0657 138.5 52.5 135.066 52.5 131C52.5 126.934 49.0657 123.5 45 123.5C40.9342 123.5 37.5 126.934 37.5 131C37.5 135.066 40.9342 138.5 45 138.5ZM45 125C48.2527 125 51 127.747 51 131C51 134.253 48.2527 137 45 137C41.7472 137 39 134.253 39 131C39 127.747 41.7472 125 45 125Z" fill="#011734"/>
<path d="M45 134.75C45.6758 134.75 46.9357 134.624 47.7802 133.781L46.7198 132.719C46.3875 133.051 45.744 133.25 45 133.25C43.7805 133.25 42.75 132.219 42.75 131C42.75 129.78 43.7805 128.75 45 128.75C45.7447 128.75 46.3883 128.949 46.7198 129.28L47.7802 128.22C46.9365 127.376 45.6758 127.25 45 127.25C42.9323 127.25 41.25 128.932 41.25 131C41.25 133.068 42.9323 134.75 45 134.75Z" fill="#011734"/>
</g>
<defs>
<clipPath id="clip0_1_2">
<rect width="415" height="900" fill="white"/>
</clipPath>
</defs>
</svg>
