
<svg width="128" height="128" viewBox="0 0 128 128" fill="none" xmlns="http://www.w3.org/2000/svg">
<defs>
<g clip-path="url(#clip0_1_2)">
<path d="M52.2227 60.3369L47.9863 72H46.2549L51.1328 59.2031H52.249L52.2227 60.3369ZM55.7734 72L51.5283 60.3369L51.502 59.2031H52.6182L57.5137 72H55.7734ZM55.5537 67.2627V68.6514H48.3643V67.2627H55.5537ZM59.7637 59.2031H61.4072L65.5996 69.6357L69.7832 59.2031H71.4355L66.2324 72H64.9492L59.7637 59.2031ZM59.2275 59.2031H60.6777L60.915 67.0078V72H59.2275V59.2031ZM70.5127 59.2031H71.9629V72H70.2754V67.0078L70.5127 59.2031ZM84.3994 65.6279V70.3125C84.2412 70.5469 83.9893 70.8105 83.6436 71.1035C83.2979 71.3906 82.8203 71.6426 82.2109 71.8594C81.6074 72.0703 80.8281 72.1758 79.873 72.1758C79.0938 72.1758 78.376 72.041 77.7197 71.7715C77.0693 71.4961 76.5039 71.0977 76.0234 70.5762C75.5488 70.0488 75.1797 69.4102 74.916 68.6602C74.6582 67.9043 74.5293 67.0488 74.5293 66.0938V65.1006C74.5293 64.1455 74.6406 63.293 74.8633 62.543C75.0918 61.793 75.4258 61.1572 75.8652 60.6357C76.3047 60.1084 76.8438 59.71 77.4824 59.4404C78.1211 59.165 78.8535 59.0273 79.6797 59.0273C80.6582 59.0273 81.4756 59.1973 82.1318 59.5371C82.7939 59.8711 83.3096 60.334 83.6787 60.9258C84.0537 61.5176 84.2939 62.1914 84.3994 62.9473H82.7031C82.627 62.4844 82.4746 62.0625 82.2461 61.6816C82.0234 61.3008 81.7041 60.9961 81.2881 60.7676C80.8721 60.5332 80.3359 60.416 79.6797 60.416C79.0879 60.416 78.5752 60.5244 78.1416 60.7412C77.708 60.958 77.3506 61.2686 77.0693 61.6729C76.7881 62.0771 76.5771 62.5664 76.4365 63.1406C76.3018 63.7148 76.2344 64.3623 76.2344 65.083V66.0938C76.2344 66.832 76.3193 67.4912 76.4893 68.0713C76.665 68.6514 76.9141 69.1465 77.2363 69.5566C77.5586 69.9609 77.9424 70.2686 78.3877 70.4795C78.8389 70.6904 79.3369 70.7959 79.8818 70.7959C80.4854 70.7959 80.9746 70.7461 81.3496 70.6465C81.7246 70.541 82.0176 70.418 82.2285 70.2773C82.4395 70.1309 82.6006 69.9932 82.7119 69.8643V66.999H79.75V65.6279H84.3994ZM91.9492 60.3369L87.7129 72H85.9814L90.8594 59.2031H91.9756L91.9492 60.3369ZM95.5 72L91.2549 60.3369L91.2285 59.2031H92.3447L97.2402 72H95.5ZM95.2803 67.2627V68.6514H88.0908V67.2627H95.2803ZM102.417 72H99.7451L99.7627 70.6201H102.417C103.331 70.6201 104.093 70.4297 104.702 70.0488C105.312 69.6621 105.769 69.123 106.073 68.4316C106.384 67.7344 106.539 66.9199 106.539 65.9883V65.2061C106.539 64.4736 106.451 63.8232 106.275 63.2549C106.1 62.6807 105.842 62.1973 105.502 61.8047C105.162 61.4062 104.746 61.1045 104.254 60.8994C103.768 60.6943 103.208 60.5918 102.575 60.5918H99.6924V59.2031H102.575C103.413 59.2031 104.178 59.3438 104.869 59.625C105.561 59.9004 106.155 60.3018 106.653 60.8291C107.157 61.3506 107.544 61.9834 107.813 62.7275C108.083 63.4658 108.218 64.2979 108.218 65.2236V65.9883C108.218 66.9141 108.083 67.749 107.813 68.4932C107.544 69.2314 107.154 69.8613 106.645 70.3828C106.141 70.9043 105.531 71.3057 104.816 71.5869C104.107 71.8623 103.308 72 102.417 72ZM100.65 59.2031V72H98.9541V59.2031H100.65Z" fill="url(#paint0_linear_1_2)"/>
<path d="M26.1667 52.3333L14.5 64L18 67.5L33.1667 52.3333H26.1667Z" fill="#40C4FF"/>
<path d="M33.1667 62.8333L26.75 69.25L23.25 65.75L26.1667 62.8333H33.1667Z" fill="#40C4FF"/>
<path d="M23.2495 65.7501L19.7497 69.2501L23.2496 72.7499L26.7495 69.2499L23.2495 65.7501Z" fill="#03A9F4"/>
<path d="M33.1667 75.6667H26.1667L23.25 72.75L26.75 69.25L33.1667 75.6667Z" fill="#01579B"/>
<path d="M23.25 72.75L28.5 71L26.75 69.25L23.25 72.75Z" fill="#084994"/>
</g>
<linearGradient id="paint0_linear_1_2" x1="180" y1="73.5" x2="42.5756" y2="73.5" gradientUnits="userSpaceOnUse">
<stop stop-color="#01579B"/>
<stop offset="1" stop-color="#40C4FF"/>
</linearGradient>
</defs>
<clipPath id="clip0_1_2">
<rect width="128" height="128" fill="white"/>
</clipPath>
</svg>

